<?xml version="1.0" encoding="UTF-8" standalone="no"?>
<svg width="9px" height="14px" viewBox="0 0 9 14" version="1.1" xmlns="http://www.w3.org/2000/svg" xmlns:xlink="http://www.w3.org/1999/xlink" xmlns:sketch="http://www.bohemiancoding.com/sketch/ns">
    <!-- Generator: Sketch 3.0.3 (7891) - http://www.bohemiancoding.com/sketch -->
    <title>Untitled</title>
    <desc>Created with Sketch.</desc>
    <defs></defs>
    <g id="Page-1" stroke="none" stroke-width="1" fill="none" fill-rule="evenodd" sketch:type="MSPage">
        <path d="M1.44931606,6.03630459 L6.94697911,0.538641541 C7.18477514,0.300845514 7.5628898,0.308104244 7.80058089,0.54579533 L8.13193176,0.877146205 C8.37604291,1.12125736 8.37282571,1.49700782 8.13908555,1.73074798 L2.86983353,7 L8.13908555,12.269252 C8.37688158,12.507048 8.36962285,12.8851627 8.13193176,13.1228538 L7.80058089,13.4542047 C7.55646973,13.6983158 7.18071927,13.6950986 6.94697911,13.4613585 L1.44800329,7.96238264 C1.357394,7.93316695 1.27188118,7.88212092 1.19941911,7.80965885 L0.868068239,7.47830798 C0.732080094,7.34231983 0.672845906,7.16547977 0.687460385,6.99509584 C0.676196496,6.82596361 0.737212391,6.65254787 0.868068239,6.52169202 L1.19941911,6.19034115 C1.27320918,6.11655108 1.35902761,6.06536028 1.44931606,6.03630459 Z" id="Back-Icon-copy-2" fill="#323D45" sketch:type="MSShapeGroup" transform="translate(4.500000, 7.000000) scale(-1, 1) rotate(-180.000000) translate(-4.500000, -7.000000) "></path>
    </g>
</svg>