<?xml version="1.0" encoding="UTF-8" standalone="no"?>
<svg width="16px" height="8px" viewBox="0 0 16 8" version="1.1" xmlns="http://www.w3.org/2000/svg" xmlns:xlink="http://www.w3.org/1999/xlink" xmlns:sketch="http://www.bohemiancoding.com/sketch/ns">
    <!-- Generator: Sketch 3.0.3 (7891) - http://www.bohemiancoding.com/sketch -->
    <title>Untitled</title>
    <desc>Created with Sketch.</desc>
    <defs></defs>
    <g id="Page-1" stroke="none" stroke-width="1" fill="none" fill-rule="evenodd" sketch:type="MSPage">
        <path d="M4.44931606,3.03630459 L9.94697911,-2.46135846 C10.1847751,-2.69915449 10.5628898,-2.69189576 10.8005809,-2.45420467 L11.1319318,-2.12285379 C11.3760429,-1.87874264 11.3728257,-1.50299218 11.1390856,-1.26925202 L5.86983353,4 L11.1390856,9.26925202 C11.3768816,9.50704805 11.3696228,9.88516271 11.1319318,10.1228538 L10.8005809,10.4542047 C10.5564697,10.6983158 10.1807193,10.6950986 9.94697911,10.4613585 L4.44800329,4.96238264 C4.357394,4.93316695 4.27188118,4.88212092 4.19941911,4.80965885 L3.86806824,4.47830798 C3.73208009,4.34231983 3.67284591,4.16547977 3.68746039,3.99509584 C3.6761965,3.82596361 3.73721239,3.65254787 3.86806824,3.52169202 L4.19941911,3.19034115 C4.27320918,3.11655108 4.35902761,3.06536028 4.44931606,3.03630459 Z" id="Back-Icon-copy" fill="#666666" sketch:type="MSShapeGroup" transform="translate(7.500000, 4.000000) rotate(-90.000000) translate(-7.500000, -4.000000) "></path>
    </g>
</svg>