<?xml version="1.0" encoding="UTF-8" standalone="no"?>
<svg width="16px" height="16px" viewBox="0 0 16 16" version="1.1" xmlns="http://www.w3.org/2000/svg" xmlns:xlink="http://www.w3.org/1999/xlink" xmlns:sketch="http://www.bohemiancoding.com/sketch/ns">
    <!-- Generator: Sketch 3.0.3 (7891) - http://www.bohemiancoding.com/sketch -->
    <title>Untitled</title>
    <desc>Created with Sketch.</desc>
    <defs></defs>
    <g id="Page-1" stroke="none" stroke-width="1" fill="none" fill-rule="evenodd" sketch:type="MSPage">
        <g id="bullets-4" sketch:type="MSLayerGroup" fill="#215387">
            <path d="M8,-0.00032 C3.58864,-0.00032 0,3.58864 0,8 C0,12.4112 3.58864,16.00032 8,16.00032 C12.4112,16.00032 16,12.4112 16,8 C16,3.58864 12.4112,-0.00032 8,-0.00032 L8,-0.00032 Z M8,15.07728 C4.0976,15.07728 0.9232,11.9024 0.9232,8 C0.9232,4.09744 4.0976,0.92288 8,0.92288 C11.9024,0.92288 15.0768,4.0976 15.0768,8 C15.0768,11.9024 11.9024,15.07728 8,15.07728 L8,15.07728 Z" id="Fill-1" sketch:type="MSShapeGroup"></path>
            <path d="M7.16528,3.92032 C6.98496,3.74 6.69296,3.74 6.51264,3.92032 C6.33232,4.10048 6.33232,4.39264 6.51264,4.57296 L9.93952,8 L6.51264,11.42688 C6.33232,11.6072 6.33232,11.8992 6.51264,12.07952 C6.60272,12.1696 6.72096,12.21472 6.83904,12.21472 C6.95712,12.21472 7.0752,12.16976 7.16544,12.07952 L10.9184,8.32624 C11.09872,8.14592 11.09872,7.85392 10.9184,7.6736 L7.16528,3.92032" id="Fill-2" sketch:type="MSShapeGroup"></path>
        </g>
    </g>
</svg>