<?xml version="1.0" encoding="UTF-8" standalone="no"?>
<svg width="44px" height="36px" viewBox="0 0 44 36" version="1.1" xmlns="http://www.w3.org/2000/svg" xmlns:xlink="http://www.w3.org/1999/xlink" xmlns:sketch="http://www.bohemiancoding.com/sketch/ns">
    <!-- Generator: Sketch 3.0.4 (8053) - http://www.bohemiancoding.com/sketch -->
    <title>Untitled 5</title>
    <desc>Created with Sketch.</desc>
    <defs></defs>
    <g id="Page-1" stroke="none" stroke-width="1" fill="none" fill-rule="evenodd" sketch:type="MSPage">
        <path d="M39.4548,22.1730811 L43.9256889,7.88740541 C44.0801778,7.398 43.9907111,6.86432432 43.6817333,6.44740541 C43.3766667,6.03486486 42.8892444,5.78821622 42.3729778,5.78821622 L10.2549333,5.78821622 L8.42991111,1.03962162 C8.18595556,0.412540541 7.58462222,0 6.90995556,0 L1.62604444,0 C0.727466667,0.000972972973 0,0.724864865 0,1.61854054 C0,2.50832432 0.727466667,3.23659459 1.62604444,3.23659459 L5.79235556,3.23659459 L7.58071111,7.88789189 C7.58462222,7.90394595 7.58902222,7.92 7.59684444,7.93216216 L7.64964444,8.06983784 L13.0714222,22.1730811 C13.0875556,22.2256216 13.1041778,22.2742703 13.1281333,22.3229189 L14.5952889,26.1452432 C13.0508889,26.9299459 11.99,28.5275676 11.99,30.3679459 C11.99,32.9847568 14.1279111,35.1121622 16.7576444,35.1121622 C19.3834667,35.1121622 21.5213778,32.9847568 21.5213778,30.3679459 C21.5213778,29.8420541 21.4358222,29.3365946 21.2735111,28.8632432 L31.0449333,28.8632432 C30.8821333,29.3365946 30.7970667,29.8420541 30.7970667,30.3679459 C30.7970667,32.9847568 32.9349778,35.1121622 35.5647111,35.1121622 C38.1905333,35.1121622 40.3284444,32.9847568 40.3284444,30.3679459 C40.3284444,27.755027 38.1905333,25.6276216 35.5647111,25.6276216 L17.8762222,25.6276216 L16.9859556,23.31 L37.9020889,23.31 C38.6134222,23.3095135 39.2436,22.8488108 39.4548,22.1730811 L39.4548,22.1730811 Z M37.0768444,30.3674595 C37.0768444,31.2008108 36.3982667,31.8760541 35.5647111,31.8760541 C34.7272444,31.8760541 34.0486667,31.2008108 34.0486667,30.3674595 C34.0486667,29.5384865 34.7272444,28.8627568 35.5647111,28.8627568 C36.3982667,28.8632432 37.0768444,29.5384865 37.0768444,30.3674595 L37.0768444,30.3674595 Z M18.2702667,30.3674595 C18.2702667,31.2008108 17.5916889,31.8760541 16.7581333,31.8760541 C15.9206667,31.8760541 15.2420889,31.2008108 15.2420889,30.3674595 C15.2420889,29.5384865 15.9206667,28.8627568 16.7581333,28.8627568 C17.5916889,28.8632432 18.2702667,29.5384865 18.2702667,30.3674595 L18.2702667,30.3674595 Z M15.7422222,20.0738919 L11.4986667,9.02383784 L40.1622222,9.02383784 L36.7072444,20.0738919 L15.7422222,20.0738919 L15.7422222,20.0738919 Z" id="Imported-Layers" fill="#999999" sketch:type="MSShapeGroup"></path>
    </g>
</svg>