<?xml version="1.0" encoding="utf-8"?>
<!-- Generator: Adobe Illustrator 16.0.0, SVG Export Plug-In . SVG Version: 6.00 Build 0)  -->
<!DOCTYPE svg PUBLIC "-//W3C//DTD SVG 1.1//EN" "http://www.w3.org/Graphics/SVG/1.1/DTD/svg11.dtd">
<svg version="1.1" id="Your_Icon" xmlns="http://www.w3.org/2000/svg" xmlns:xlink="http://www.w3.org/1999/xlink" x="0px" y="0px"
	 width="100px" height="99.891px" viewBox="0.162 0.555 100 99.891" enable-background="new 0.162 0.555 100 99.891"
	 xml:space="preserve">
<g>
	<path d="M57.447,64.001c-4.031-4.709-8.536-10.876-12.198-17.568c-2.57-4.699-4.72-9.533-1.151-12.01L26.694,9.407
		c-3.777,3.301-13.943,20.45,9.991,55.848c9.736,14.4,18.868,22.749,26.649,27.421l-4.008,3.177
		c-0.703,0.56-1.523,0.782-2.305,0.634c-0.78-0.149-1.459-0.657-1.909-1.435l-0.907-1.572c-1.089-1.876-2.715-2.952-4.469-2.952
		c-1.753,0-3.381,1.076-4.468,2.952l-0.909,1.572c-0.398,0.688-0.825,0.998-1.071,0.998c-0.244,0-0.669-0.311-1.066-1.004
		l-0.962-1.682c-1.078-1.89-2.7-2.968-4.447-2.968c-1.747,0-3.368,1.078-4.446,2.968l-0.962,1.682
		c-0.395,0.693-0.821,1.004-1.066,1.004c-0.247,0-0.672-0.31-1.071-0.998l-0.909-1.572c-1.085-1.876-2.715-2.952-4.467-2.952
		s-3.381,1.076-4.467,2.952l-0.909,1.572c-0.399,0.688-0.825,0.998-1.071,0.998c-0.245,0-0.67-0.311-1.066-1.004l-0.962-1.682
		c-1.076-1.886-2.699-2.968-4.448-2.974c-0.004,0-0.007,0-0.011,0c-1.745,0-3.368,1.074-4.455,2.948l-0.909,1.569
		c-0.416,0.72-0.828,0.979-1.006,0.979H4.583C4.406,95.883,4,95.611,3.606,94.876l-3.444,1.853c1.032,1.923,2.624,3.04,4.358,3.07
		c1.659-0.017,3.362-1.039,4.455-2.93l0.909-1.57c0.4-0.688,0.825-0.998,1.071-0.998c0.247,0.002,0.671,0.311,1.066,1.004
		l0.963,1.682c1.076,1.888,2.699,2.97,4.448,2.976c0.003,0,0.007,0,0.011,0c1.747,0,3.37-1.075,4.455-2.949l0.909-1.571
		c0.401-0.691,0.835-1.004,1.085-1.004s0.684,0.312,1.084,1.004l0.909,1.571c1.084,1.874,2.708,2.949,4.454,2.949
		c0.003,0,0.007,0,0.012,0c1.749-0.006,3.372-1.088,4.448-2.976l0.962-1.682c0.79-1.381,1.313-1.381,2.103,0l0.963,1.682
		c1.077,1.888,2.701,2.97,4.448,2.976c0.004,0,0.007,0,0.011,0c1.748,0,3.371-1.075,4.456-2.949l0.909-1.571
		c0.401-0.691,0.835-1.004,1.085-1.004s0.683,0.312,1.085,1.004l0.907,1.571c1.029,1.773,2.646,2.951,4.563,3.315
		c0.407,0.078,0.815,0.117,1.224,0.117c1.502,0,2.975-0.523,4.24-1.527l5.318-4.219c10.42,5.013,17.848,3.333,20.092,1.705
		L70.21,71.982C66.803,74.35,63.541,71.116,57.447,64.001z"/>
	<path d="M99.562,83.611l0.002-0.02c0,0-13.224-19.025-13.232-19.037c-1.049-1.508-3.097-1.851-4.585-0.817l-6.917,4.803
		l16.999,24.484c0,0,6.908-4.781,6.91-4.794l0.006-0.01C100.324,87.126,100.562,85.05,99.562,83.611z"/>
	<path d="M55.659,26.193l0.008-0.013c1.58-1.096,1.817-3.167,0.816-4.608l0.005-0.019c0,0-13.608-19.575-13.617-19.586
		c-1.048-1.511-3.099-1.853-4.584-0.817L31.37,5.952l17.381,25.033C48.751,30.985,55.657,26.204,55.659,26.193z"/>
</g>
</svg>
