<?xml version="1.0" encoding="UTF-8" standalone="no"?>
<svg width="65px" height="66px" viewBox="0 0 65 66" version="1.1" xmlns="http://www.w3.org/2000/svg" xmlns:xlink="http://www.w3.org/1999/xlink" xmlns:sketch="http://www.bohemiancoding.com/sketch/ns">
    <!-- Generator: Sketch 3.0.3 (7891) - http://www.bohemiancoding.com/sketch -->
    <title>Untitled</title>
    <desc>Created with Sketch.</desc>
    <defs></defs>
    <g id="Page-1" stroke="none" stroke-width="1" fill="none" fill-rule="evenodd" sketch:type="MSPage">
        <g id="Imported-Layers" sketch:type="MSLayerGroup" transform="translate(1.000000, 0.000000)" fill="#CCCCCC">
            <path d="M30.5531915,24.770625 L33.0818723,24.770625 L33.0818723,32.428 L30.5531915,32.428 L30.5531915,24.770625 Z M30.5531915,13.7108125 L33.0818723,13.7108125 L33.0818723,21.3681875 L30.5531915,21.3681875 L30.5531915,13.7108125 Z M30.5531915,2.649625 L33.0818723,2.649625 L33.0818723,10.3063125 L30.5531915,10.3063125 L30.5531915,2.649625 Z" id="Fill-1" sketch:type="MSShapeGroup"></path>
            <path d="M-0.0285957447,16.077875 L-0.0285957447,49.6045 L31.8161702,65.671375 L31.8161702,32.157125 L-0.0285957447,16.077875 L-0.0285957447,16.077875 Z M2.67165957,48.2075 L2.68051064,20.1636875 L30.4980426,34.21 L30.4980426,62.255875 L2.67165957,48.2075 L2.67165957,48.2075 Z" id="Fill-2" sketch:type="MSShapeGroup"></path>
            <path d="M31.8161702,32.157125 L31.8161702,65.6706875 L63.6595745,49.6038125 L63.6595745,16.077875 L31.8161702,32.157125 L31.8161702,32.157125 Z M33.1342979,62.255875 L33.1342979,34.21 L60.9518298,20.1636875 L60.96,48.2075 L33.1342979,62.255875 L33.1342979,62.255875 Z" id="Fill-3" sketch:type="MSShapeGroup"></path>
            <path d="M61.0362553,17.4040625 L31.8161702,2.649625 L5.00629787,16.1865 L31.8161702,2.649625 L2.59812766,17.403375 L-0.0285957447,16.077875 L31.8161702,0 L63.6595745,16.077875 L61.0362553,17.4040625" id="Fill-4" sketch:type="MSShapeGroup"></path>
        </g>
    </g>
</svg>