<?xml version="1.0" encoding="UTF-8" standalone="no"?>
<svg width="28px" height="42px" viewBox="0 0 28 42" version="1.1" xmlns="http://www.w3.org/2000/svg" xmlns:xlink="http://www.w3.org/1999/xlink" xmlns:sketch="http://www.bohemiancoding.com/sketch/ns">
    <!-- Generator: Sketch 3.0.3 (7891) - http://www.bohemiancoding.com/sketch -->
    <title>Untitled</title>
    <desc>Created with Sketch.</desc>
    <defs></defs>
    <g id="Page-1" stroke="none" stroke-width="1" fill="none" fill-rule="evenodd" sketch:type="MSPage">
        <path d="M0,0 L0,42 L11.1444179,42 L11.1444179,33.6 L16.7164179,33.6 L16.7164179,42 L27.8604179,42 L27.8604179,0 L0,0 L0,0 Z M2.78620896,18.19986 L8.35820896,18.19986 L8.35820896,26.59986 L2.78620896,26.59986 L2.78620896,18.19986 Z M2.78620896,4.2 L8.35820896,4.2 L8.35820896,12.6 L2.78620896,12.6 L2.78620896,4.2 Z M11.1444179,18.19986 L16.7164179,18.19986 L16.7164179,26.59986 L11.1444179,26.59986 L11.1444179,18.19986 Z M11.1444179,4.2 L16.7164179,4.2 L16.7164179,12.6 L11.1444179,12.6 L11.1444179,4.2 Z M19.5026269,18.19986 L25.0746269,18.19986 L25.0746269,26.59986 L19.5026269,26.59986 L19.5026269,18.19986 Z M19.5026269,4.2 L25.0746269,4.2 L25.0746269,12.6 L19.5026269,12.6 L19.5026269,4.2 Z" id="Imported-Layers" fill="#CCCCCC" sketch:type="MSShapeGroup"></path>
    </g>
</svg>