<?xml version="1.0" encoding="UTF-8" standalone="no"?>
<svg width="20px" height="20px" viewBox="0 0 20 20" version="1.1" xmlns="http://www.w3.org/2000/svg" xmlns:xlink="http://www.w3.org/1999/xlink" xmlns:sketch="http://www.bohemiancoding.com/sketch/ns">
    <!-- Generator: Sketch 3.0.3 (7891) - http://www.bohemiancoding.com/sketch -->
    <title>Untitled</title>
    <desc>Created with Sketch.</desc>
    <defs></defs>
    <g id="Page-1" stroke="none" stroke-width="1" fill="none" fill-rule="evenodd" sketch:type="MSPage">
        <path d="M12.5864205,9.82556818 L19.4541477,2.95761364 C19.7175568,2.69420455 19.7175568,2.26738636 19.4541477,2.00420455 L17.6473295,0.197386364 C17.3841477,-0.0657954545 16.9573295,-0.0657954545 16.6939205,0.197386364 L9.82596591,7.06534091 L2.95801136,0.197386364 C2.69482955,-0.0657954545 2.26778409,-0.0657954545 2.004375,0.197386364 L0.197556818,2.00420455 C-0.0658522727,2.26738636 -0.0658522727,2.69420455 0.197556818,2.95761364 L7.06551136,9.82556818 L0.197784091,16.69375 C-0.0658522727,16.9571591 -0.0658522727,17.3839773 0.197784091,17.6471591 L2.004375,19.4539773 C2.26778409,19.7173864 2.69482955,19.7173864 2.95801136,19.4539773 L9.82596591,12.58625 L16.6936932,19.4539773 C16.9571023,19.7173864 17.3839205,19.7173864 17.6471023,19.4539773 L19.4539205,17.6471591 C19.7173295,17.3839773 19.7173295,16.9571591 19.4539205,16.69375 L12.5864205,9.82556818" id="Imported-Layers" fill-opacity="0.712098053" fill="#DD0017" sketch:type="MSShapeGroup"></path>
    </g>
</svg>