<?xml version="1.0" encoding="UTF-8" standalone="no"?>
<svg width="11px" height="14px" viewBox="0 0 11 14" version="1.1" xmlns="http://www.w3.org/2000/svg" xmlns:xlink="http://www.w3.org/1999/xlink" xmlns:sketch="http://www.bohemiancoding.com/sketch/ns">
    <!-- Generator: Sketch 3.0.3 (7891) - http://www.bohemiancoding.com/sketch -->
    <title>Untitled</title>
    <desc>Created with Sketch.</desc>
    <defs></defs>
    <g id="Page-1" stroke="none" stroke-width="1" fill="none" fill-rule="evenodd" sketch:type="MSPage">
        <g id="file_illustrator" sketch:type="MSLayerGroup" fill="#666666">
            <path d="M1.94436,5.11977778 L8.8572,5.11977778 L8.8572,5.89555556 L1.94436,5.89555556 L1.94436,5.11977778 Z" id="Fill-1" sketch:type="MSShapeGroup"></path>
            <path d="M1.94436,2.60911111 L5.7849,2.60911111 L5.7849,3.38488889 L1.94436,3.38488889 L1.94436,2.60911111 Z" id="Fill-2" sketch:type="MSShapeGroup"></path>
            <path d="M1.94436,7.62977778 L8.8572,7.62977778 L8.8572,8.40577778 L1.94436,8.40577778 L1.94436,7.62977778 Z" id="Fill-3" sketch:type="MSShapeGroup"></path>
            <path d="M1.94436,10.1404444 L8.8572,10.1404444 L8.8572,10.9162222 L1.94436,10.9162222 L1.94436,10.1404444 Z" id="Fill-4" sketch:type="MSShapeGroup"></path>
            <path d="M7.68042,-0.0188888889 L0.0077,-0.0188888889 L0.0077,13.7713333 L10.7932,13.7713333 L10.7932,2.97577778 L7.68042,-0.0188888889 L7.68042,-0.0188888889 Z M7.92638,1.36044444 L9.3599,2.73955556 L7.92638,2.73955556 L7.92638,1.36044444 L7.92638,1.36044444 Z M0.82676,12.9437778 L0.82676,0.808888889 L7.1071,0.808888889 L7.1071,3.56688889 L9.97392,3.56688889 L9.97392,12.9437778 L0.82676,12.9437778 L0.82676,12.9437778 Z" id="Fill-5" sketch:type="MSShapeGroup"></path>
        </g>
    </g>
</svg>