<?xml version="1.0" encoding="UTF-8" standalone="no"?>
<svg width="35px" height="38px" viewBox="0 0 35 38" version="1.1" xmlns="http://www.w3.org/2000/svg" xmlns:xlink="http://www.w3.org/1999/xlink" xmlns:sketch="http://www.bohemiancoding.com/sketch/ns">
    <!-- Generator: Sketch 3.0.4 (8053) - http://www.bohemiancoding.com/sketch -->
    <title>Untitled 2</title>
    <desc>Created with Sketch.</desc>
    <defs></defs>
    <g id="Page-1" stroke="none" stroke-width="1" fill="none" fill-rule="evenodd" sketch:type="MSPage">
        <g id="Imported-Layers" sketch:type="MSLayerGroup" fill="#666666">
            <path d="M6.47769231,21.3864752 L21.0526923,21.3864752 L21.0526923,23.7624158 L6.47769231,23.7624158 L6.47769231,21.3864752 Z" id="Fill-1" sketch:type="MSShapeGroup"></path>
            <path d="M6.47769231,14.2575248 L21.0526923,14.2575248 L21.0526923,16.6334653 L6.47769231,16.6334653 L6.47769231,14.2575248 Z" id="Fill-2" sketch:type="MSShapeGroup"></path>
            <path d="M6.47769231,7.1289505 L21.0526923,7.1289505 L21.0526923,9.50489109 L6.47769231,9.50489109 L6.47769231,7.1289505 Z" id="Fill-3" sketch:type="MSShapeGroup"></path>
            <path d="M33.1984615,5.5449901 L27.5307692,5.5449901 L27.5307692,1.5839604 C27.5307692,0.59370297 26.9238462,0 25.9111538,0 L1.61923077,0 C0.606923077,0 0,0.59370297 0,1.5839604 L0,30.8909901 C0,31.882 0.606923077,32.4760792 1.61923077,32.4760792 L7.28730769,32.4760792 L7.28730769,36.0405545 C7.28730769,37.0308119 7.89461538,37.6245149 8.90692308,37.6245149 L33.1984615,37.6245149 C34.2111538,37.6245149 34.8180769,37.0308119 34.8180769,36.0405545 L34.8180769,7.1289505 C34.8180769,6.13831683 34.2111538,5.5449901 33.1984615,5.5449901 L33.1984615,5.5449901 Z M2.42923077,29.3074059 L2.42923077,3.16829703 C2.42923077,2.67316832 2.73269231,2.37594059 3.23884615,2.37594059 L24.2915385,2.37594059 C24.7976923,2.37594059 25.1011538,2.67316832 25.1011538,3.16829703 L25.1011538,29.3074059 C25.1011538,29.8021584 24.7976923,30.0990099 24.2915385,30.0990099 L3.23884615,30.0990099 C2.73269231,30.0990099 2.42923077,29.8021584 2.42923077,29.3074059 L2.42923077,29.3074059 Z M32.3884615,34.4554653 C32.3884615,34.9505941 32.085,35.2470693 31.5792308,35.2470693 L10.9311538,35.2470693 C10.425,35.2470693 10.1215385,34.9509703 10.1215385,34.4554653 L10.1215385,32.4749505 L25.9111538,32.4749505 C26.9238462,32.4749505 27.5307692,31.8812475 27.5307692,30.8906139 L27.5307692,8.31710891 L31.5792308,8.31710891 C32.085,8.31710891 32.3884615,8.61358416 32.3884615,9.10871287 L32.3884615,34.4554653 L32.3884615,34.4554653 Z" id="Fill-4" sketch:type="MSShapeGroup"></path>
        </g>
    </g>
</svg>