<?xml version="1.0" encoding="UTF-8" standalone="no"?>
<svg width="33px" height="33px" viewBox="0 0 33 33" version="1.1" xmlns="http://www.w3.org/2000/svg" xmlns:xlink="http://www.w3.org/1999/xlink" xmlns:sketch="http://www.bohemiancoding.com/sketch/ns">
    <!-- Generator: Sketch 3.0.3 (7891) - http://www.bohemiancoding.com/sketch -->
    <title>Untitled</title>
    <desc>Created with Sketch.</desc>
    <defs></defs>
    <g id="Page-1" stroke="none" stroke-width="1" fill="none" fill-rule="evenodd" sketch:type="MSPage">
        <path d="M16.5,0 C7.387875,0 0,7.387875 0,16.5 C0,25.6141875 7.387875,33 16.5,33 C25.6131563,33 33,25.6141875 33,16.5 C33,7.387875 25.6131563,0 16.5,0 L16.5,0 Z M20.6869285,16.006 L18.274879,16.006 L18.274879,24 L14.7009145,24 L14.7009145,16.006 L13,16.006 L13,13.181 L14.7009145,13.181 L14.7009145,11.353 C14.7009145,10.045 15.3690156,8 18.3071544,8 L20.9548144,8.01 L20.9548144,10.752 L19.0333513,10.752 C18.7202797,10.752 18.274879,10.896 18.274879,11.521 L18.274879,13.181 L21,13.181 L20.6869285,16.006 L20.6869285,16.006 Z" id="Imported-Layers-7" fill="#BBBBBB" sketch:type="MSShapeGroup"></path>
    </g>
</svg>