<?xml version="1.0" encoding="UTF-8" standalone="no"?>
<svg width="48px" height="21px" viewBox="0 0 48 21" version="1.1" xmlns="http://www.w3.org/2000/svg" xmlns:xlink="http://www.w3.org/1999/xlink" xmlns:sketch="http://www.bohemiancoding.com/sketch/ns">
    <!-- Generator: Sketch 3.0.3 (7891) - http://www.bohemiancoding.com/sketch -->
    <title>Untitled</title>
    <desc>Created with Sketch.</desc>
    <defs></defs>
    <g id="Page-1" stroke="none" stroke-width="1" fill="none" fill-rule="evenodd" sketch:type="MSPage">
        <g id="binding" sketch:type="MSLayerGroup" fill="#7DA7D9">
            <path d="M9.5,7 C11.433,7 13,8.567 13,10.5 C13,12.433 11.433,14 9.5,14 C7.567,14 6,12.433 6,10.5 C6,8.567 7.567,7 9.5,7" id="Fill-1" sketch:type="MSShapeGroup"></path>
            <path d="M37.5,7 C39.433,7 41,8.567 41,10.5 C41,12.433 39.433,14 37.5,14 C35.567,14 34,12.433 34,10.5 C34,8.567 35.567,7 37.5,7" id="Fill-2" sketch:type="MSShapeGroup"></path>
            <path d="M47.9781823,10.0639497 C47.7585503,4.46869029 43.371245,0 37.9764449,0 C36.5321105,0 35.1624412,0.3265933 33.9222238,0.902575886 C33.9183451,0.902067965 33.9144664,0.901052122 33.9110725,0.900544201 C31.2590049,2.29681945 28.0164037,3.57678075 24.2424193,3.57678075 C20.4791014,3.57678075 16.9150522,2.56652558 14.2067433,0.914765993 C14.1815317,0.919845205 14.1568049,0.925432338 14.1320781,0.930003628 C12.8773156,0.337767566 11.4892224,0 10.0235551,0 C4.62584594,0 0.236601281,4.4737695 0.0213329024,10.0730923 C0.00775741904,10.2142944 0,10.3570202 0,10.499746 C0,10.6394244 0.00775741904,10.7796106 0.020363225,10.918781 C0.232237733,16.5216592 4.62245207,21 10.0230702,21 C11.3064383,21 12.5296863,20.7374048 13.6579059,20.2767203 C13.663724,20.278244 13.6690572,20.2797678 13.6748753,20.2807836 C13.7034807,20.2665619 13.7325711,20.2518321 13.7611765,20.2376104 C14.1650472,20.0669488 14.5558272,19.8713992 14.9315771,19.6494377 C17.4183148,18.404015 20.2754692,17.0839279 23.6189168,17.0839279 C27.288176,17.0839279 30.4536878,18.2897327 33.1256338,19.6849921 C33.2531464,19.7591486 33.3855074,19.8236546 33.515929,19.891716 C33.6284115,19.9521587 33.7418638,20.0126013 33.852407,20.0735518 C33.8582251,20.072536 33.8635583,20.0710122 33.8693764,20.0699964 C35.1241389,20.6622324 36.5117472,20.9994921 37.9774146,20.9994921 C43.3756086,20.9994921 47.7643684,16.5252147 47.9796368,10.925384 C47.9922426,10.7841819 48,10.641964 48,10.4992381 C47.9990303,10.3539727 47.9907881,10.2087072 47.9781823,10.0639497 L47.9781823,10.0639497 Z M10.0005,17 C6.134,17 3,13.8653359 3,9.99925008 C3,6.13466414 6.1345,3 10.0005,3 C13.866,3 17,6.13466414 17,9.99925008 C17,13.8653359 13.8665,17 10.0005,17 L10.0005,17 Z M38,17 C34.135,17 31,13.8665 31,10 C31,6.1355 34.135,3 38,3 C41.8665,3 45,6.1355 45,10 C45,13.8665 41.867,17 38,17 L38,17 Z" id="Fill-3" sketch:type="MSShapeGroup"></path>
        </g>
    </g>
</svg>