<?xml version="1.0" encoding="UTF-8" standalone="no"?>
<svg width="48px" height="38px" viewBox="0 0 48 38" version="1.1" xmlns="http://www.w3.org/2000/svg" xmlns:xlink="http://www.w3.org/1999/xlink" xmlns:sketch="http://www.bohemiancoding.com/sketch/ns">
    <!-- Generator: Sketch 3.0.3 (7891) - http://www.bohemiancoding.com/sketch -->
    <title>Untitled</title>
    <desc>Created with Sketch.</desc>
    <defs></defs>
    <g id="Page-1" stroke="none" stroke-width="1" fill="none" fill-rule="evenodd" sketch:type="MSPage">
        <g id="dashboard_ico" sketch:type="MSLayerGroup" fill="#7DA7D9">
            <path d="M46.1865,2.85270778 L15.912,2.85270778 C15.245,2.23385834 14.728,0 14.023,0 L5.781,0 C5.076,0 4.572,2.23385834 3.8975,2.85270778 L1.814,2.85270778 C0.813,2.85270778 0,3.67851838 0,4.69705201 L0,36.1566728 C0,37.1746979 0.813,38 1.814,38 L46.1865,38 C47.19,38 48,37.1746979 48,36.1566728 L48,4.69705201 C48,3.67800988 47.19,2.85270778 46.1865,2.85270778 L46.1865,2.85270778 Z M44.1040007,35 L3.89499795,35 C2.84811797,35 2,34.1518064 2,33.1020916 L2,7.89640449 C2,6.8486949 2.84761731,6 3.89499795,6 L44.1040007,6 C45.15038,6 45.9989987,6.8486949 45.9989987,7.89640449 L45.9989987,33.1020916 L46,33.1020916 C46,34.1518064 45.1508807,35 44.1040007,35 L44.1040007,35 Z" id="Fill-1" sketch:type="MSShapeGroup"></path>
            <path d="M13,25 L13,17.0007492 L21,17.0007492 C20.9995006,12.5820821 17.4180297,9 13,9 C8.58197028,9 5,12.5820821 5,17.0017481 C5,21.4184174 8.58197028,25 13,25" id="Fill-2" sketch:type="MSShapeGroup"></path>
            <path d="M15,27 C19.4180297,27 23,23.4179775 23,19 L15,19 L15,27" id="Fill-3" sketch:type="MSShapeGroup"></path>
            <path d="M34,15 L37,15 L37,26 L34,26 L34,15 Z" id="Fill-4" sketch:type="MSShapeGroup"></path>
            <path d="M40,11 L43,11 L43,25 L40,25 L40,11 Z" id="Fill-5" sketch:type="MSShapeGroup"></path>
            <path d="M29,18 L32,18 L32,25 L29,25 L29,18 Z" id="Fill-6" sketch:type="MSShapeGroup"></path>
            <path d="M6,30 L44,30 L44,32 L6,32 L6,30 Z" id="Fill-7" sketch:type="MSShapeGroup"></path>
        </g>
    </g>
</svg>