<?xml version="1.0" encoding="UTF-8" standalone="no"?>
<svg width="42px" height="49px" viewBox="0 0 42 49" version="1.1" xmlns="http://www.w3.org/2000/svg" xmlns:xlink="http://www.w3.org/1999/xlink" xmlns:sketch="http://www.bohemiancoding.com/sketch/ns">
    <!-- Generator: Sketch 3.0.3 (7891) - http://www.bohemiancoding.com/sketch -->
    <title>Untitled</title>
    <desc>Created with Sketch.</desc>
    <defs></defs>
    <g id="Page-1" stroke="none" stroke-width="1" fill="none" fill-rule="evenodd" sketch:type="MSPage">
        <g id="realtime" sketch:type="MSLayerGroup" fill="#7DA7D9">
            <path d="M20.9987589,49 C9.4195922,49 0,39.3548611 0,27.4987293 C0,15.6413268 9.4195922,6 20.9987589,6 C32.5797872,6 42,15.6413268 42,27.4987293 C42,39.3548611 32.5797872,49 20.9987589,49 L20.9987589,49 Z M20.497836,10 C10.8502535,10 3,18.0737024 3,27.9980921 C3,37.9224817 10.8502535,46 20.497836,46 C30.1497465,46 38,37.9224817 38,27.9980921 C38,18.0737024 30.1497465,10 20.497836,10 L20.497836,10 Z" id="Fill-1" sketch:type="MSShapeGroup"></path>
            <path d="M26,3.00177445 C26,4.65851735 25.2171838,6 24.2607399,6 L17.7362768,6 C16.776253,6 16,4.65851735 16,3.00177445 C16,1.34621451 16.776253,0 17.7362768,0 L24.2613365,0 C25.2177804,0 26,1.34621451 26,3.00177445" id="Fill-2" sketch:type="MSShapeGroup"></path>
            <path id="Fill-3" sketch:type="MSShapeGroup"></path>
            <path d="M34,20.0792043 C32.3548701,16.8919094 29.6870249,14.3690394 26.459254,13 L20,29 L34,20.0792043" id="Fill-4" sketch:type="MSShapeGroup"></path>
        </g>
    </g>
</svg>