<?xml version="1.0" encoding="UTF-8" standalone="no"?>
<svg width="48px" height="30px" viewBox="0 0 48 30" version="1.1" xmlns="http://www.w3.org/2000/svg" xmlns:xlink="http://www.w3.org/1999/xlink" xmlns:sketch="http://www.bohemiancoding.com/sketch/ns">
    <!-- Generator: Sketch 3.0.3 (7891) - http://www.bohemiancoding.com/sketch -->
    <title>Untitled</title>
    <desc>Created with Sketch.</desc>
    <defs></defs>
    <g id="Page-1" stroke="none" stroke-width="1" fill="none" fill-rule="evenodd" sketch:type="MSPage">
        <g id="touch" sketch:type="MSLayerGroup" fill="#7DA7D9">
            <path d="M15.5208544,21.6899271 C16.1246563,21.2887454 16.1649951,20.6622521 15.6008917,20.271665 C15.0412705,19.8937913 14.0904266,19.9121553 13.4821426,20.3140433 C12.8738587,20.7131061 12.836081,21.3466625 13.3976232,21.7252424 C13.9572444,22.103116 14.9080883,22.0911088 15.5208544,21.6899271" id="Fill-1" sketch:type="MSShapeGroup"></path>
            <path d="M21.4469213,29.9999992 C20.2561573,30.0005538 19.0805158,29.7249083 18.1765209,29.1725081 L2.60865293,19.722361 C1.57863641,19.0928688 0.993336103,18.1627734 1.00005726,17.170006 C1.00677841,16.1378607 1.6492085,15.1656142 2.76267932,14.5033995 L7.5100529,11.6937015 C8.0404638,11.3786781 8.72882177,11.5517191 9.04639619,12.0763883 C9.36341052,12.6021668 9.19090096,13.2837931 8.65992996,13.5977073 L3.91423667,16.4062961 C3.41967192,16.700244 3.24156139,17.0002927 3.2404412,17.1833168 C3.23932101,17.3807611 3.44151566,17.623684 3.78261412,17.831666 L19.3504821,27.2812586 C20.4757149,27.9684311 22.5200652,27.9429186 23.7281923,27.2285698 L45.083532,14.5888108 C45.5803372,14.2948629 45.7584477,13.9942596 45.7595679,13.8117901 C45.7606881,13.6149005 45.5584934,13.3730867 45.2179551,13.1656594 L29.6450463,3.71717608 C28.5142125,3.0305582 26.4721025,3.05551604 25.2734971,3.77097409 C24.7453266,4.0865521 24.0552883,3.91794803 23.7360336,3.39216956 C23.417339,2.86750032 23.5881683,2.185874 24.1185792,1.86974137 C26.0335474,0.727781574 28.9757316,0.707260684 30.816207,1.82648111 L46.3907961,11.2766282 C47.4208126,11.9044566 48.0061129,12.8339974 47.9999518,13.8273194 C47.9932307,14.8600193 47.3496804,15.8322658 46.2339692,16.4944805 L24.8775092,29.1347941 C23.901822,29.7110428 22.6662503,29.9999992 21.4469213,29.9999992" id="Fill-2" sketch:type="MSShapeGroup"></path>
            <path d="M19.789756,20 L19.789756,20 C18.3906263,20 17.0519697,19.6423705 16.0184279,18.9927417 L1.80942673,10.0742512 C0.64614242,9.3428627 -0.0124656183,8.28944075 0.000178776445,7.18429322 C0.0122734149,6.12586557 0.643943394,5.14641675 1.73136134,4.49790039 L7.85124838,0.843182513 C8.75889602,0.299785867 9.95241693,0 11.2119086,0 C12.6110384,0 13.9496949,0.357629523 14.9815875,1.00670208 L29.1889393,9.92574877 C30.3522237,10.6554687 31.0119312,11.7083345 30.9998366,12.813482 C30.9882917,13.8724659 30.356072,14.8524709 29.2670047,15.5020996 L23.1493167,19.1568175 C22.2394701,19.7002141 21.0470487,20 19.789756,20 L19.789756,20 Z M11.1482517,2 C10.2643987,2 9.45643208,2.19514289 8.87277664,2.54880361 L2.65958038,6.31031153 C2.24332134,6.56153654 2.00282851,6.86025967 2.00003857,7.13036947 C1.99613266,7.442827 2.28907635,7.81766158 2.78233773,8.13240817 L17.2035373,17.3081298 C17.8937685,17.7482027 18.8596457,18 19.8534223,18 L19.8539803,18 C20.7361593,18 21.5441259,17.8048571 22.1283393,17.4511964 L28.3387457,13.6902607 C28.7561207,13.4384635 28.9971715,13.1391681 28.9999614,12.8690583 C29.0038673,12.557173 28.7109236,12.183483 28.2171043,11.8687364 L13.7970207,2.69072571 C13.1084635,2.25122501 12.1425863,2 11.1482517,2 L11.1482517,2 Z" id="Fill-3" sketch:type="MSShapeGroup"></path>
            <path d="M21.4817129,14.6894869 C20.8742074,14.2883821 20.8357982,13.654241 21.3978528,13.2764398 C21.9592673,12.8936954 22.9098951,12.9113496 23.5180408,13.3110421 C24.128107,13.712147 24.1620351,14.3392264 23.6025411,14.7240893 C23.0404864,15.1061275 22.0917791,15.0884732 21.4817129,14.6894869" id="Fill-4" sketch:type="MSShapeGroup"></path>
        </g>
    </g>
</svg>