<?xml version="1.0" encoding="UTF-8" standalone="no"?>
<svg width="46px" height="44px" viewBox="0 0 46 44" version="1.1" xmlns="http://www.w3.org/2000/svg" xmlns:xlink="http://www.w3.org/1999/xlink" xmlns:sketch="http://www.bohemiancoding.com/sketch/ns">
    <!-- Generator: Sketch 3.0.3 (7891) - http://www.bohemiancoding.com/sketch -->
    <title>Untitled</title>
    <desc>Created with Sketch.</desc>
    <defs></defs>
    <g id="Page-1" stroke="none" stroke-width="1" fill="none" fill-rule="evenodd" sketch:type="MSPage">
        <path d="M40.4477226,34.5516537 L45,1.55461145 L34.5468081,0 L32.4092249,15.4945308 L26.4208016,0.139607421 L16.6325849,4.25447701 L22.8302087,20.1474805 L10.2275835,9.84303307 L3.69405366,18.4575208 L15.0341831,27.7298198 L1.49767555,25.7161603 L0,36.5700457 L28.9079639,40.8699543 L31.0350643,41.1860823 L31.5564705,42.5234741 L32.5942694,42.0871417 L34.9337607,44 L36.4565039,41.9924926 L39.3607001,42.4245657 L40.0516545,37.4171551 L39.8269576,39.0455929 L41.3442314,38.407658 L40.6072438,36.5189352 L41.4672906,35.385039 L40.4477226,34.5516537 L40.4477226,34.5516537 Z M35.9401961,2 L44,3.19689518 L43.0598039,10 L35,8.80310482 L35.9401961,2 L35.9401961,2 Z M34.9397866,9 L43,10.1969661 L42.0602134,17 L34,15.8030339 L34.9397866,9 L34.9397866,9 Z M18,4.98926495 L25.520051,2 L28,8.01073505 L20.4794933,11 L18,4.98926495 L18,4.98926495 Z M21,11.9891164 L28.5205067,9 L31,15.0104363 L23.4794933,18 L21,11.9891164 L21,11.9891164 Z M6,18.7021518 L10.9160939,12 L16,16.2973691 L11.0834598,23 L6,18.7021518 L6,18.7021518 Z M12,23.7021518 L16.9165402,17 L22,21.2973691 L17.0843524,28 L12,23.7021518 L12,23.7021518 Z M2,35.0598039 L3.19689518,27 L10,27.9401961 L8.80310482,36 L2,35.0598039 L2,35.0598039 Z M9,36.0598039 L10.1964921,28 L17,28.9401961 L15.8030339,37 L9,36.0598039 L9,36.0598039 Z M23.4748647,39 L17,38.0189279 L18.0620005,30.1808494 L17.845901,30 L24,35.125338 L23.4748647,39 L23.4748647,39 Z M29.9390184,39 L25,38.291482 L25.4711321,35 L30,38.5711472 L29.9390184,39 L29.9390184,39 Z M29.5330304,37 L24.2243971,32.7129713 L27.0793429,28.9947422 L26.5755563,27.7185278 L23.3081673,31.9735317 L18,27.686025 L23.1329372,21 L24.2924385,21.9363685 L30,36.3924837 L29.5330304,37 L29.5330304,37 Z M29.4046675,37 L29.8665786,33.5238302 L29.3958609,33.7293438 L27,27.3513032 L30.9145751,25.6426453 L31,25 L29.4046675,37 L29.4046675,37 Z M26.4754648,26 L24,19.9892649 L31.5073634,17 L32,18.1960638 L31.132996,24.1455196 L26.4754648,26 L26.4754648,26 Z M34,41.2017447 L33,41 L34,41.2017447 L34,41.2017447 Z M37.5,39 C36.671363,39 36,38.328637 36,37.5 C36,36.671363 36.671363,36 37.5,36 C38.328637,36 39,36.6718545 39,37.5 C38.9995085,38.328637 38.328637,39 37.5,39 L37.5,39 Z M40.0598039,33 L32,31.8031048 L32.9401961,25 L41,26.1968952 L40.0598039,33 L40.0598039,33 Z M33,23.8035079 L33.9401961,17 L42,18.1969661 L41.0598039,25 L33,23.8035079 L33,23.8035079 Z" id="themes" fill="#7DA7D9" sketch:type="MSShapeGroup"></path>
    </g>
</svg>