<?xml version="1.0" encoding="UTF-8" standalone="no"?>
<svg width="40px" height="49px" viewBox="0 0 40 49" version="1.1" xmlns="http://www.w3.org/2000/svg" xmlns:xlink="http://www.w3.org/1999/xlink" xmlns:sketch="http://www.bohemiancoding.com/sketch/ns">
    <!-- Generator: Sketch 3.0.3 (7891) - http://www.bohemiancoding.com/sketch -->
    <title>Untitled</title>
    <desc>Created with Sketch.</desc>
    <defs></defs>
    <g id="Page-1" stroke="none" stroke-width="1" fill="none" fill-rule="evenodd" sketch:type="MSPage">
        <g id="charts" sketch:type="MSLayerGroup" fill="#7DA7D9">
            <path d="M11.6223331,12.9537815 C12.3672596,11.9196343 13.1168291,10.8783197 13.8767161,9.82369435 C14.8491445,9.87232999 15.7993902,10.0049261 16.5025307,9.15149867 C18.7558821,10.3766047 20.9803443,11.5863522 23.2522672,12.8222093 C23.2677435,13.1611228 23.2765134,13.4974767 23.2997279,13.8328066 C23.3590537,14.7225827 23.9265186,15.343583 24.8530339,15.543757 C25.4916898,15.6814727 26.4156257,15.2135467 26.7968589,14.6222397 C27.3055138,13.8328066 27.1832509,13.0684592 26.7339219,12.267763 C29.4231894,9.37215087 32.0944012,6.49752884 34.7754147,3.61061992 C35.4749441,3.79287556 36.1461002,4.11950225 36.8028118,3.70533142 C37.150513,3.48570313 37.5229763,3.23279782 37.7422241,2.90156355 C38.2173469,2.18533982 38.0001626,1.13532205 37.3811101,0.53787167 C36.7228508,-0.0974633145 35.6188738,-0.155314123 34.9425589,0.287014182 C34.1300524,0.819446401 33.9489795,1.7721929 34.429777,3.27273024 C33.2190134,4.56080665 31.960789,5.88267202 30.7231998,7.22245579 C29.508825,8.53715381 28.32076,9.87591366 27.1079328,11.1911236 C26.8788834,11.4394214 26.5868969,11.6303802 26.3310219,11.8413053 C25.3028788,11.5489795 24.3412838,11.443517 23.5705633,12.4172536 C21.3177279,11.209042 19.1077103,10.0233564 16.8657082,8.82128831 C16.7645963,8.09687332 17.0127332,7.2367905 16.3255849,6.70435828 C15.9211372,6.39053045 15.4073236,6.14018491 14.9064069,6.03932996 C13.9649311,5.84939501 13.2457984,6.61527828 12.7907948,8.15114045 C12.999725,8.59346875 13.209687,9.03835683 13.4526651,9.55184675 C12.6798812,10.6469165 11.9679707,11.8182674 11.0847891,12.8452472 C10.598317,13.4109564 10.2186314,14.006359 9.8100567,14.6155843 C8.37385476,16.758624 6.82880275,18.8294782 5.31883038,20.9238822 C5.16406724,21.1394149 4.97164507,21.3283259 4.82410421,21.4972708 C3.59012611,21.1517018 2.58210219,21.4808882 2.16940048,22.3143494 C1.77733386,23.1058304 2.09305067,24.3073866 2.83591374,24.8495459 C3.52564147,25.3533087 4.61517397,25.2785634 5.27756021,24.6821369 C6.06272521,23.9761523 6.09419371,22.9461007 5.34875125,21.6933492 C6.81590582,19.6844414 8.2918303,17.6627349 9.7739453,15.6456359 C9.80541381,15.6031437 9.9116845,15.6144067 9.98287554,15.6010959 C10.0133123,15.6185023 10.0478761,15.6313012 10.0726382,15.6548511 C10.0994638,15.6804488 10.1350593,15.7162855 10.1350593,15.7480267 C10.1376387,26.6992359 10.1376387,37.6504451 10.1376387,48.550459 C10.5064908,48.9359604 10.9016527,49.0020024 11.34118,48.9999546 C13.533142,48.9902275 15.7256198,49.0030264 17.9175817,48.9943231 C18.7904458,48.9902275 19.0700512,48.7147962 19.1329882,47.8562493 C19.1469169,47.6668263 19.1355676,47.4753554 19.1355676,47.2843966 C19.1355676,36.4842138 19.1371153,25.684031 19.1376311,14.8838482 C19.1376311,14.7691705 19.1355676,14.6550048 19.1335041,14.5403271 C19.1118373,13.4775105 18.924058,13.2788723 17.8453589,13.2717049 C16.0382413,13.2609539 14.2306079,13.2670973 12.4234903,13.2681212 C12.1196386,13.2686332 11.7925725,13.3428665 11.6223331,12.9537815" id="Fill-1" sketch:type="MSShapeGroup"></path>
            <path d="M39.9994845,47.2004547 C39.9979381,34.9080879 39.9963916,22.6162289 39.9948452,10.3248779 C39.9948452,10.2492028 39.9979381,10.1735278 39.9974226,10.0978528 C39.9865975,9.0749702 39.9262864,9.00640558 38.8886263,9.00335827 C36.395252,8.99726363 33.9018778,9.00132672 31.3935547,9.00132672 C31.0816896,9.53206768 31.0084915,10.0668717 31.0084915,10.6387514 C31.0136463,22.8925189 31.009007,35.1473022 31.0069451,47.4005618 C31.0064296,47.5900033 30.9889033,47.7809685 31.0115844,47.9678705 C31.0827206,48.5539711 31.4481955,48.9125387 32.0471827,48.9902452 C32.1977027,49.0095449 32.3538929,48.9932925 32.5075058,48.9932925 C34.5802488,48.9932925 36.6535072,48.9861821 38.7257347,48.9998951 C39.1618304,49.0024345 39.5618424,48.9618036 40,48.5549869 C40,48.1049998 40,47.6529812 39.9994845,47.2004547 Z" id="Fill-2" sketch:type="MSShapeGroup"></path>
            <path d="M28.9903729,33.869164 C28.9903729,29.3613916 28.990889,24.8536193 28.9898568,20.3458469 C28.9893407,19.0014595 28.9872763,19.0014595 27.6624355,19.0014595 C25.5076985,19.0014595 23.3534776,18.9968467 21.1992567,19.0040222 C20.3167177,19.0070975 20.0602136,19.2618289 20.0065387,20.1480072 C19.99312,20.3760866 20.0049904,20.6067288 20.0049904,20.8353208 C20.0049904,29.6981291 20.0039582,38.5609375 20.002926,47.4237459 C20.002926,47.6149226 19.9957005,47.8060993 20.0039582,47.9967634 C20.032344,48.6522996 20.3254914,48.9613601 20.9814605,48.9905748 C21.442342,49.0105637 21.9037395,48.9926249 22.3661693,48.9921124 C24.1353762,48.9915998 25.904583,48.9915998 27.674306,48.9890371 C27.9431965,48.9885246 28.2151837,48.9967252 28.4794292,48.9572598 C28.7705123,48.9142066 28.9676643,48.7296929 28.9893407,48.4237076 C29.0084365,48.1577004 28.99605,47.889643 28.99605,47.6226106 C28.9965661,43.0379576 28.9965661,38.453817 28.9965661,33.869164 L28.9903729,33.869164" id="Fill-3" sketch:type="MSShapeGroup"></path>
            <path d="M0,48.7479538 C0.379547814,48.8276121 0.775147445,48.9780195 1.17178268,48.9827361 C3.36932827,49.0063191 5.56790947,49.0026507 7.76545507,48.990073 C8.77568397,48.9837842 8.99730261,48.757387 8.99782041,47.7606104 C9.00144502,41.2422574 9.00040942,34.7249526 8.99574921,28.2071237 C8.99523141,27.3633748 8.9838398,27.3528935 8.13723587,27.1327851 C7.84623196,27.0567953 7.53814062,27.0127736 7.23833409,27.0117255 C5.34887983,27.0007201 3.45890777,26.9897146 1.56997131,27.0174902 C1.05217075,27.0253512 0.535923584,27.1673736 0,27.2501762 L0,48.7479538" id="Fill-4" sketch:type="MSShapeGroup"></path>
        </g>
    </g>
</svg>