<?xml version="1.0" encoding="UTF-8" standalone="no"?>
<svg width="43px" height="34px" viewBox="0 0 43 34" version="1.1" xmlns="http://www.w3.org/2000/svg" xmlns:xlink="http://www.w3.org/1999/xlink" xmlns:sketch="http://www.bohemiancoding.com/sketch/ns">
    <!-- Generator: Sketch 3.0.3 (7891) - http://www.bohemiancoding.com/sketch -->
    <title>Untitled</title>
    <desc>Created with Sketch.</desc>
    <defs></defs>
    <g id="Page-1" stroke="none" stroke-width="1" fill="none" fill-rule="evenodd" sketch:type="MSPage">
        <path d="M0,7 L43,7 L43,34 L0,34 L0,7 Z M2,33 L42,33 L42,9 L2,9 L2,33 Z M4,4 L40,4 L40,6 L4,6 L4,4 Z M7,0 L36,0 L36,2 L7,2 L7,0 Z M16.8082628,28 L11,21.5008069 L16.8082628,15 L18,16.3050027 L13.3839809,21.5008069 L18,26.6960732 L16.8082628,28 L16.8082628,28 Z M26.1917372,15 L32,21.499731 L26.1917372,28 L25,26.6949973 L29.6160191,21.499731 L25,16.3039268 L26.1917372,15 L26.1917372,15 Z" id="embed" fill="#7DA7D9" sketch:type="MSShapeGroup"></path>
    </g>
</svg>