<?xml version="1.0" encoding="UTF-8" standalone="no"?>
<svg width="15px" height="16px" viewBox="0 0 15 16" version="1.1" xmlns="http://www.w3.org/2000/svg" xmlns:xlink="http://www.w3.org/1999/xlink" xmlns:sketch="http://www.bohemiancoding.com/sketch/ns">
    <!-- Generator: Sketch 3.0.3 (7891) - http://www.bohemiancoding.com/sketch -->
    <title>Untitled</title>
    <desc>Created with Sketch.</desc>
    <defs></defs>
    <g id="Page-1" stroke="none" stroke-width="1" fill="none" fill-rule="evenodd" sketch:type="MSPage">
        <g id="fullscreen_illustrator" sketch:type="MSLayerGroup" transform="translate(7.500000, 8.000000) rotate(-180.000000) translate(-7.500000, -8.000000) " fill="#666666">
            <path d="M4.13522727,12.0891765 C4.22409091,12.1432941 4.32340909,12.1705882 4.42295455,12.1705882 C4.51840909,12.1705882 4.61363636,12.1458824 4.69977273,12.0962353 L10.7213636,8.61929412 C10.9013636,8.51552941 11.0129545,8.31882353 11.0129545,8.10541176 C11.0129545,7.892 10.9013636,7.69552941 10.7213636,7.59152941 L4.69977273,4.11435294 C4.52386364,4.01317647 4.30909091,4.01552941 4.13545455,4.12117647 C3.96159091,4.22635294 3.855,4.41952941 3.855,4.628 L3.855,6.53505882 L0.571136364,6.53505882 C0.257272727,6.53505882 0.00295454545,6.79835294 0.00295454545,7.12329412 L0.00295454545,9.08658824 C0.00295454545,9.41152941 0.257272727,9.67482353 0.571136364,9.67482353 L3.85477273,9.67482353 L3.85477273,11.5818824 C3.85477273,11.7908235 3.96159091,11.984 4.13522727,12.0891765" id="Fill-1" sketch:type="MSShapeGroup"></path>
            <path d="M14.9968182,13.5929412 L14.9968182,2.40705882 C14.9968182,1.10329412 13.9722727,0.0425882353 12.7131818,0.0425882353 L4.53977273,0.0425882353 C4.03772727,0.0425882353 3.63068182,0.464 3.63068182,0.983764706 C3.63068182,1.50352941 4.03772727,1.92494118 4.53977273,1.92494118 L12.7134091,1.92494118 C12.9702273,1.92494118 13.1788636,2.14094118 13.1788636,2.40705882 L13.1788636,13.5929412 C13.1788636,13.8585882 12.9702273,14.0750588 12.7134091,14.0750588 L4.53977273,14.0750588 C4.03772727,14.0750588 3.63068182,14.4964706 3.63068182,15.0162353 C3.63068182,15.536 4.03772727,15.9574118 4.53977273,15.9574118 L12.7134091,15.9574118 C13.9725,15.9571765 14.9968182,14.8967059 14.9968182,13.5929412" id="Fill-2" sketch:type="MSShapeGroup"></path>
        </g>
    </g>
</svg>