<?xml version="1.0" encoding="UTF-8" standalone="no"?>
<svg width="34px" height="33px" viewBox="0 0 34 33" version="1.1" xmlns="http://www.w3.org/2000/svg" xmlns:xlink="http://www.w3.org/1999/xlink" xmlns:sketch="http://www.bohemiancoding.com/sketch/ns">
    <!-- Generator: Sketch 3.0.3 (7891) - http://www.bohemiancoding.com/sketch -->
    <title>Untitled</title>
    <desc>Created with Sketch.</desc>
    <defs></defs>
    <g id="Page-1" stroke="none" stroke-width="1" fill="none" fill-rule="evenodd" sketch:type="MSPage">
        <path d="M16.9984346,0 C7.61214279,0 0,7.57442139 0,16.9185965 C0,24.3922749 4.87056079,30.7338925 11.625894,32.9710108 C12.4764419,33.1267989 12.7863961,32.6043892 12.7863961,32.1557193 C12.7863961,31.7537858 12.7717855,30.6902718 12.7634366,29.2777923 C8.0348077,30.3008013 7.03710979,27.0105549 7.03710979,27.0105549 C6.26378956,25.0559325 5.14920654,24.5356 5.14920654,24.5356 C3.60569692,23.4855877 5.26609165,23.507398 5.26609165,23.507398 C6.97240554,23.6268356 7.8699162,25.2511871 7.8699162,25.2511871 C9.3873354,27.8362323 11.849228,27.0894876 12.8177047,26.6563965 C12.97216,25.5627634 13.4115228,24.8180959 13.8968047,24.3943521 C10.1220418,23.9674924 6.15316615,22.5165852 6.15316615,16.0337197 C6.15316615,14.1860718 6.81586298,12.675965 7.90331195,11.4930135 C7.7290279,11.0651152 7.14564597,9.34521372 8.07029068,7.01566111 C8.07029068,7.01566111 9.49795881,6.56075962 12.7446515,8.75010287 C14.1013536,8.37517264 15.5551122,8.18718824 17.0005218,8.18095671 C18.4448878,8.18718824 19.8986464,8.37517264 21.2574358,8.75010287 C24.5020412,6.56075962 25.9276221,7.01566111 25.9276221,7.01566111 C26.854354,9.34521372 26.2709721,11.0651152 26.0966881,11.4930135 C27.1862243,12.675965 27.843703,14.1860718 27.843703,16.0337197 C27.843703,22.532164 23.8696093,23.9622995 20.082323,24.381889 C20.6928389,24.9042987 21.2355198,25.9366551 21.2355198,27.51427 C21.2355198,29.7763144 21.2156911,31.6011133 21.2156911,32.1557193 C21.2156911,32.6085436 21.5214709,33.1340691 22.3845422,32.9689336 C29.1336137,30.7276609 34,24.3912363 34,16.9185965 C34,7.57442139 26.3878572,0 16.9984346,0" id="Imported-Layers-9" fill="#BBBBBB" sketch:type="MSShapeGroup"></path>
    </g>
</svg>