<?xml version="1.0" encoding="UTF-8" standalone="no"?>
<svg width="18px" height="18px" viewBox="0 0 18 18" version="1.1" xmlns="http://www.w3.org/2000/svg" xmlns:xlink="http://www.w3.org/1999/xlink" xmlns:sketch="http://www.bohemiancoding.com/sketch/ns">
    <!-- Generator: Sketch 3.0.3 (7891) - http://www.bohemiancoding.com/sketch -->
    <title>Untitled</title>
    <desc>Created with Sketch.</desc>
    <defs></defs>
    <g id="Page-1" stroke="none" stroke-width="1" fill="none" fill-rule="evenodd" sketch:type="MSPage">
        <path d="M9,0 C4.0293,0 0,4.0293 0,8.9997 C0,13.9695 4.0293,17.9988 9,17.9988 C13.9698,17.9988 18,13.9695 18,8.9997 C18,4.0293 13.9698,0 9,0 L9,0 Z M10.1595,12.1257 C10.1595,12.4572 10.0449,12.7353 9.816,12.9588 C9.5868,13.1817 9.3063,13.2933 8.9739,13.2933 C8.676,13.2933 8.4126,13.1817 8.1834,12.9588 C7.9545,12.7353 7.8396,12.4572 7.8396,12.1257 L7.8396,8.7255 C7.8396,8.3931 7.9545,8.1156 8.1834,7.8921 C8.4126,7.6692 8.676,7.5573 8.9739,7.5573 C9.306,7.5573 9.5868,7.6692 9.816,7.8921 C10.0449,8.1156 10.1595,8.3931 10.1595,8.7255 L10.1595,12.1257 L10.1595,12.1257 Z M9.8163,6.6807 C9.5871,6.9099 9.3066,7.0245 8.9742,7.0245 C8.6763,7.0245 8.4129,6.9096 8.1837,6.6807 C7.9548,6.4515 7.8399,6.1767 7.8399,5.856 C7.8399,5.547 7.9548,5.2776 8.1837,5.049 C8.4129,4.8195 8.6763,4.7052 8.9742,4.7052 C9.3063,4.7052 9.5871,4.8195 9.8163,5.049 C10.0452,5.2779 10.1598,5.547 10.1598,5.856 C10.1595,6.177 10.0449,6.4518 9.8163,6.6807 L9.8163,6.6807 Z" id="Imported-Layers" fill="#BBBBBB" sketch:type="MSShapeGroup"></path>
    </g>
</svg>