<?xml version="1.0" encoding="UTF-8" standalone="no"?>
<svg width="74px" height="38px" viewBox="0 0 74 38" version="1.1" xmlns="http://www.w3.org/2000/svg" xmlns:xlink="http://www.w3.org/1999/xlink" xmlns:sketch="http://www.bohemiancoding.com/sketch/ns">
    <!-- Generator: Sketch 3.0.3 (7891) - http://www.bohemiancoding.com/sketch -->
    <title>Untitled</title>
    <desc>Created with Sketch.</desc>
    <defs></defs>
    <g id="Page-1" stroke="none" stroke-width="1" fill="none" fill-rule="evenodd" sketch:type="MSPage">
        <g id="cute-devvie-+-Imported-Layers" sketch:type="MSLayerGroup" fill="#CCCCCC">
            <g id="Imported-Layers" transform="translate(0.000000, 8.000000)" sketch:type="MSShapeGroup">
                <path d="M9.49844,25.6004667 L6.5828,25.6004667 C4.61076,25.6004667 2.99936,24.3871333 2.99936,21.3847111 L2.99936,16.419 C2.99936,14.6267333 0.69188,14.4262444 0,14.4262444 L0,11.1337778 C0.69188,11.1337778 2.99936,10.933 2.99936,9.14246667 L2.99936,4.14786667 C2.99936,1.14602222 4.52872,-0.0384222222 6.5828,-0.0384222222 L9.49844,-0.0384222222 L9.49844,3.2526 L8.1382,3.2526 C6.44476,3.2526 6.32996,4.32004444 6.32996,5.09975556 L6.32996,9.74942222 C6.30616,12.4355111 4.7222,12.6357111 3.55432,12.753 L3.55432,12.8078889 C4.72164,12.8968667 6.30616,13.0993778 6.32996,15.7854667 L6.32996,20.4614222 C6.32996,21.2414222 6.44476,22.3085778 8.1382,22.3085778 L9.49844,22.3085778 L9.49844,25.6004667" id="Fill-1"></path>
                <path d="M64.49792,-0.0384222222 L67.49728,-0.0384222222 C69.3856,-0.0384222222 70.99728,1.17664444 70.99728,4.17646667 L70.99728,9.14246667 C70.99728,10.9327111 73.22048,11.1337778 74,11.1337778 L74,14.4265333 C73.22076,14.4265333 70.99728,14.6267333 70.99728,16.4195778 L70.99728,21.4138889 C70.99728,24.4157333 69.4696,25.6007556 67.41552,25.6007556 L64.49792,25.6007556 L64.49792,22.3094444 L65.859,22.3094444 C67.5544,22.3094444 67.66472,21.2422889 67.66472,20.4622889 L67.66472,15.8114667 C67.69216,13.1265333 69.27472,12.9257556 70.44344,12.8081778 L70.44344,12.7532889 C69.27444,12.6643111 67.69216,12.4620889 67.66472,9.77657778 L67.66472,5.10004444 C67.66472,4.32033333 67.55412,3.25288889 65.859,3.25288889 L64.49792,3.25288889 L64.49792,-0.0384222222" id="Fill-2"></path>
            </g>
        </g>
        <g id="Imported-Layers" sketch:type="MSLayerGroup" transform="translate(22.000000, 1.000000)" fill="#CCCCCC">
            <path d="M15.4242007,22.2680012 C15.1741217,22.2680012 14.9291316,22.1419848 14.7830099,21.9108303 C14.5536497,21.5473214 14.6543355,21.0630155 15.0083717,20.8281328 L19.336773,17.9510058 C19.6900822,17.7157502 20.1637056,17.8186512 20.3927023,18.182533 C20.6220625,18.5452964 20.5213766,19.0303479 20.1673405,19.2656034 L15.8385757,22.1423576 C15.7106283,22.2269899 15.566324,22.2680012 15.4242007,22.2680012" id="Fill-1" sketch:type="MSShapeGroup" transform="translate(17.587856, 20.046399) rotate(2.000000) translate(-17.587856, -20.046399) "></path>
            <path d="M9.12024836,22.2680012 C8.94613816,22.2680012 8.77057401,22.20723 8.6273602,22.082332 L5.18441283,19.0933561 C4.86236349,18.8144794 4.82237993,18.3201072 5.09499507,17.9901529 C5.3676102,17.6601986 5.84923026,17.6191873 6.17055263,17.8984368 L9.6135,20.8874127 C9.93554934,21.1666622 9.97553289,21.6606616 9.70291776,21.9909887 C9.55243421,22.1736753 9.33725,22.2680012 9.12024836,22.2680012" id="Fill-2" sketch:type="MSShapeGroup"></path>
            <path d="M33.3161135,0.292298507 C32.4026711,-0.441057569 31.0828503,-0.275893999 30.3693257,0.661027109 L26.9809013,5.10217484 L26.010028,4.27672982 C25.7672187,4.06980932 25.4055493,4.10448249 25.2041776,4.35390557 C25.0020789,4.60370149 25.0358832,4.97392141 25.2794194,5.18084191 L26.2746464,6.02753823 L23.9363355,9.09257143 C21.410102,7.01702833 18.2066924,5.77289552 14.7186727,5.77289552 C6.56784375,5.77289552 -0.0399835526,12.5505672 -0.0399835526,20.910901 C-0.0399835526,29.2712348 6.56784375,36.0489065 14.7186727,36.0489065 C22.8695016,36.0489065 29.4776924,29.2712348 29.4776924,20.910901 C29.4776924,17.7004642 28.5002763,14.7260286 26.8384145,12.2765373 L29.5082253,8.77753031 L30.4961826,9.61788852 C30.6026842,9.70885897 30.7320855,9.75322571 30.8611234,9.75322571 C31.0254194,9.75322571 31.189352,9.68089674 31.3023964,9.54071276 C31.5044951,9.29128967 31.4699638,8.92106975 31.2267911,8.71377642 L30.2141168,7.85253975 L33.675602,3.31557478 C34.3898536,2.37865367 34.2295559,1.02528175 33.3161135,0.292298507 L33.3161135,0.292298507 Z M20.2407648,23.9077064 L5.78998191,23.9077064 C3.80316283,23.9077064 2.19255263,22.255325 2.19255263,20.2178105 C2.19255263,18.1799232 3.80316283,16.5279147 5.78998191,16.5279147 L20.2407648,16.5279147 C22.2275839,16.5279147 23.8378306,18.1799232 23.8378306,20.2178105 C23.8378306,22.255325 22.2272204,23.9077064 20.2407648,23.9077064 L20.2407648,23.9077064 Z" id="Fill-3" sketch:type="MSShapeGroup"></path>
        </g>
    </g>
</svg>