<?xml version="1.0" encoding="UTF-8" standalone="no"?>
<svg width="48px" height="42px" viewBox="0 0 48 42" version="1.1" xmlns="http://www.w3.org/2000/svg" xmlns:xlink="http://www.w3.org/1999/xlink" xmlns:sketch="http://www.bohemiancoding.com/sketch/ns">
    <!-- Generator: Sketch 3.0.3 (7891) - http://www.bohemiancoding.com/sketch -->
    <title>Untitled</title>
    <desc>Created with Sketch.</desc>
    <defs></defs>
    <g id="Page-1" stroke="none" stroke-width="1" fill="none" fill-rule="evenodd" sketch:type="MSPage">
        <g id="oem-2" sketch:type="MSLayerGroup" fill="#CCCCCC">
            <path d="M48,33.726 C48,31.852 46.4823093,30.3185 44.6276289,30.3185 L3.58119588,30.3185 C1.72651546,30.3185 0.208824742,31.852 0.208824742,33.726 L0.208824742,38.4875 C0.208824742,40.362 1.72651546,41.895 3.58119588,41.895 L44.6276289,41.895 C46.4823093,41.895 48,40.362 48,38.4875 L48,33.726 L48,33.726 Z M30.323134,38.038 C29.267134,38.038 28.4120412,37.1735 28.4120412,36.1065 C28.4120412,35.0395 29.2676289,34.1755 30.323134,34.1755 C31.3786392,34.1755 32.2347216,35.0395 32.2347216,36.1065 C32.2347216,37.1735 31.379134,38.038 30.323134,38.038 L30.323134,38.038 Z M36.0588866,38.038 C35.0023918,38.038 34.1468041,37.1735 34.1468041,36.1065 C34.1468041,35.0395 35.0023918,34.1755 36.0588866,34.1755 C37.1138969,34.1755 37.9699794,35.0395 37.9699794,36.1065 C37.9699794,37.1735 37.1138969,38.038 36.0588866,38.038 L36.0588866,38.038 Z M41.7931546,38.038 C40.7371546,38.038 39.881567,37.1735 39.881567,36.1065 C39.881567,35.0395 40.7371546,34.1755 41.7931546,34.1755 C42.8491546,34.1755 43.7052371,35.0395 43.7052371,36.1065 C43.7052371,37.1735 42.8491546,38.038 41.7931546,38.038 L41.7931546,38.038 Z" id="Fill-1" sketch:type="MSShapeGroup"></path>
            <path d="M3.58119588,28.395 L44.6276289,28.395 C45.5599175,28.395 46.4338144,28.6425 47.1948866,29.0725 L43.241567,20.623 C42.1420206,18.177 40.2962474,17.2155 38.441567,17.2155 L33.9642062,17.2155 L27.5163711,23.8705 C27.0561649,24.344 26.5355876,24.711 25.9590928,24.964 C25.3712165,25.219 24.742268,25.3485 24.0910515,25.3485 C23.4294433,25.3485 22.7970309,25.2155 22.2106392,24.953 L22.1497732,24.9255 L22.0903918,24.895 C21.5772371,24.63 21.1195052,24.306 20.729567,23.934 L20.6954227,23.902 L20.6632577,23.8685 L14.2193814,17.2155 L9.76725773,17.2155 C7.91257732,17.2155 6.17369072,18.2775 4.96725773,20.623 L1.01393814,29.073 C1.77451546,28.6425 2.64940206,28.395 3.58119588,28.395" id="Fill-2" sketch:type="MSShapeGroup"></path>
            <path d="M33.6712577,14.081 C33.8795876,13.865 34.0626804,13.5945 34.2190515,13.2705 C34.3417732,12.9635 34.403134,12.635 34.403134,12.2835 C34.403134,11.933 34.3373196,11.6075 34.2071753,11.311 C34.0750515,11.0135 33.8964124,10.748 33.6707629,10.5145 C33.4253196,10.2615 33.1556289,10.0715 32.8587216,9.9465 C32.5796289,9.8205 32.2733196,9.7575 31.942268,9.7575 C31.6112165,9.7575 31.2964948,9.8205 31.0005773,9.9465 C30.6863505,10.091 30.4156701,10.2795 30.1890309,10.5145 L26.550433,14.2695 L26.550433,2.618 C26.550433,2.2755 26.4851134,1.956 26.3544742,1.659 C26.2243299,1.362 26.044701,1.0915 25.8180619,0.8485 C25.590433,0.6045 25.3212371,0.4105 25.0065155,0.267 C24.7274227,0.159 24.4216082,0.1045 24.089567,0.1045 C23.7580206,0.1045 23.4522062,0.159 23.1736082,0.2665 C22.8583918,0.41 22.5882062,0.6045 22.3620619,0.848 C22.1354227,1.0905 21.9597526,1.3615 21.8385155,1.6585 C21.7157938,1.9565 21.6559175,2.276 21.6559175,2.618 L21.6559175,14.2695 L17.9910928,10.5145 C17.7639588,10.2795 17.4937732,10.0915 17.1795464,9.9465 C16.9009485,9.8205 16.5862268,9.758 16.2373608,9.758 C15.9058144,9.758 15.6,9.8205 15.3214021,9.9465 C15.0423093,10.072 14.7721237,10.2615 14.5098557,10.5145 C14.2832165,10.748 14.1085361,11.014 13.987299,11.311 C13.8645773,11.609 13.8037113,11.9335 13.8037113,12.284 C13.8037113,12.635 13.8645773,12.964 13.9877938,13.27 C14.1263505,13.5945 14.3010309,13.865 14.5113402,14.0815 L22.3625567,22.187 C22.5891959,22.403 22.8593814,22.593 23.1736082,22.7555 C23.4522062,22.8805 23.7580206,22.9445 24.089567,22.9445 C24.4216082,22.9445 24.7313814,22.8805 25.0193814,22.7555 C25.3073814,22.629 25.5726186,22.439 25.817567,22.187 L33.6712577,14.081" id="Fill-3" sketch:type="MSShapeGroup"></path>
        </g>
    </g>
</svg>