<?xml version="1.0" encoding="UTF-8" standalone="no"?>
<svg width="42px" height="42px" viewBox="0 0 42 42" version="1.1" xmlns="http://www.w3.org/2000/svg" xmlns:xlink="http://www.w3.org/1999/xlink" xmlns:sketch="http://www.bohemiancoding.com/sketch/ns">
    <!-- Generator: Sketch 3.0.3 (7891) - http://www.bohemiancoding.com/sketch -->
    <title>Untitled</title>
    <desc>Created with Sketch.</desc>
    <defs></defs>
    <g id="Page-1" stroke="none" stroke-width="1" fill="none" fill-rule="evenodd" sketch:type="MSPage">
        <path d="M21,0 C32.58066,0 42,9.4206 42,21 C42,32.5815 32.58066,42 21,42 C9.42396,42 0,32.5815 0,21 C0,9.4206 9.42396,0 21,0 L21,0 Z M22.63422,32.73564 C23.13738,32.235 23.39316,31.62348 23.39316,30.9162 C23.39316,30.20934 23.13864,29.59782 22.63716,29.09886 C22.13652,28.5957 21.525,28.34076 20.81772,28.34076 C20.11086,28.34076 19.49892,28.59528 18.9987,29.09802 C18.49806,29.60118 18.24312,30.21312 18.24312,30.9162 C18.24312,31.6197 18.49764,32.23164 18.9987,32.73354 C19.49892,33.23586 20.1117,33.48996 20.81772,33.48996 C21.52374,33.48996 22.1361,33.23628 22.63422,32.73564 L22.63422,32.73564 Z M22.2621,26.78424 C22.70898,26.41968 22.93578,25.86444 22.93578,25.13448 C22.93578,24.71826 23.05548,24.31842 23.29866,23.91438 C23.7783,23.13696 24.59268,22.31628 25.71576,21.47922 C27.92454,19.8576 29.04384,17.93862 29.04384,15.77772 C29.04384,13.71888 28.28574,12.03888 26.796,10.7898 C25.37976,9.58314 23.45028,8.97162 21.06174,8.97162 C18.82146,8.97162 16.77648,9.53106 14.99106,10.6302 C14.06118,11.18712 13.86546,11.94354 13.86546,12.4782 C13.86546,12.9675 14.05908,13.42026 14.42658,13.78902 C14.7924,14.15736 15.24054,14.3514 15.72228,14.3514 C16.15698,14.3514 16.5711,14.23128 16.96884,13.98474 C17.94786,13.33962 19.23726,13.0116 20.80176,13.0116 C24.42174,13.0116 24.84048,14.68278 24.84048,15.93984 C24.84048,16.3548 24.70818,16.74204 24.43476,17.12634 C24.22434,17.42412 23.64348,18.04278 22.08234,19.29438 C19.90338,20.98152 18.79836,23.02902 18.79836,25.37934 C18.79836,25.90266 19.01088,26.37516 19.41114,26.74182 C19.80258,27.10134 20.28054,27.28488 20.83452,27.28488 C21.3738,27.2853 21.85386,27.11604 22.2621,26.78424 L22.2621,26.78424 Z" id="Imported-Layers-7" fill="#BBBBBB" sketch:type="MSShapeGroup"></path>
    </g>
</svg>