<?xml version="1.0" encoding="UTF-8" standalone="no"?>
<svg width="14px" height="14px" viewBox="0 0 14 14" version="1.1" xmlns="http://www.w3.org/2000/svg" xmlns:xlink="http://www.w3.org/1999/xlink" xmlns:sketch="http://www.bohemiancoding.com/sketch/ns">
    <!-- Generator: Sketch 3.0.3 (7891) - http://www.bohemiancoding.com/sketch -->
    <title>Untitled</title>
    <desc>Created with Sketch.</desc>
    <defs></defs>
    <g id="Page-1" stroke="none" stroke-width="1" fill="none" fill-rule="evenodd" sketch:type="MSPage">
        <g id="RSS" sketch:type="MSLayerGroup" fill="#666666">
            <path d="M2,10 C3.10452602,10 4,10.8954353 4,12 C4,13.1045647 3.10452602,14 2,14 C0.895473979,14 0,13.1045647 0,12 C0,10.8954353 0.895473979,10 2,10" id="Fill-1" sketch:type="MSShapeGroup"></path>
            <path d="M9,13 L6.65511141,13 C6.65511141,9.87663876 4.12318321,7.3446632 1,7.3446632 L1,5 C5.41842944,5 9,8.5816248 9,13" id="Fill-2" sketch:type="MSShapeGroup"></path>
            <path d="M11.4000789,13 C11.4000789,7.25621 6.74392932,2.6 1,2.6 L1,0 C8.17971451,0 14,5.82036 14,13 L11.4000789,13" id="Fill-3" sketch:type="MSShapeGroup"></path>
        </g>
    </g>
</svg>