<?xml version="1.0" encoding="UTF-8" standalone="no"?>
<svg width="66px" height="42px" viewBox="0 0 66 42" version="1.1" xmlns="http://www.w3.org/2000/svg" xmlns:xlink="http://www.w3.org/1999/xlink" xmlns:sketch="http://www.bohemiancoding.com/sketch/ns">
    <!-- Generator: Sketch 3.0.3 (7891) - http://www.bohemiancoding.com/sketch -->
    <title>Untitled</title>
    <desc>Created with Sketch.</desc>
    <defs></defs>
    <g id="Page-1" stroke="none" stroke-width="1" fill="none" fill-rule="evenodd" sketch:type="MSPage">
        <g id="badal-2" sketch:type="MSLayerGroup" fill="#CCCCCC">
            <path d="M24.07548,28.1133333 C25.21662,27.354 26.5386,26.892 27.90084,26.7786667 C28.1325,26.758 28.36482,26.7486667 28.59186,26.7486667 C28.67436,26.7486667 28.75092,26.75 28.8222,26.7513333 C28.9542,26.7566667 29.08554,26.7633333 29.21622,26.772 L29.22414,26.7106667 C29.88018,20.864 33.89298,15.9366667 39.44886,14.158 C39.98346,13.986 40.5339,13.844 41.085,13.736 C42.01824,13.552 42.97458,13.4586667 43.92894,13.4586667 C44.57772,13.4586667 45.22188,13.502 45.85812,13.5873333 C44.32956,7.606 39.82506,2.83466667 34.03422,0.979333333 C33.396,0.774 32.74128,0.604666667 32.07204,0.473333333 C30.96786,0.256 29.82606,0.141333333 28.65654,0.141333333 C23.30262,0.141333333 18.50442,2.53466667 15.24666,6.31866667 C18.7902,7.51533333 20.2521,10.5353333 20.2521,10.5353333 C17.57382,8.24666667 13.8237,8.20666667 13.8237,8.20666667 L13.7742,8.20666667 C6.16704,8.20733333 0,14.436 0,22.12 C0,29.8046667 6.16704,36.034 13.77486,36.034 L20.427,36.034 C20.38872,35.7126667 20.36892,35.3853333 20.36892,35.0546667 C20.36826,32.2526667 21.75492,29.656 24.07548,28.1133333" id="Fill-1" sketch:type="MSShapeGroup"></path>
            <path d="M57.7302,21.2406667 C57.42066,21.1626667 57.1065,21.0986667 56.78574,21.048 C56.47752,21.0013333 56.16534,20.9673333 55.84788,20.9493333 C55.63338,20.936 55.41624,20.9286667 55.19778,20.9286667 L55.16016,20.9286667 C55.16016,20.9286667 52.32084,20.9586667 50.29266,22.692 C50.29266,22.692 51.39948,20.404 54.08304,19.4993333 C53.95764,19.352 53.8263,19.2093333 53.69364,19.0673333 C53.15838,18.4973333 52.57428,17.9726667 51.9486,17.502 C51.41532,17.1013333 50.85168,16.74 50.26296,16.4206667 C49.41618,15.962 48.51594,15.594 47.57346,15.326 C47.33982,15.2593333 47.1042,15.2 46.86528,15.146 C46.6323,15.0926667 46.39668,15.0466667 46.1604,15.0066667 C45.43374,14.8846667 44.6886,14.8206667 43.92828,14.8206667 C43.04322,14.8206667 42.17928,14.9066667 41.3424,15.072 C40.83552,15.172 40.3392,15.2993333 39.85608,15.454 C34.88562,17.0473333 31.16652,21.478 30.56196,26.8633333 C30.60948,26.8906667 30.65832,26.918 30.70782,26.9466667 C31.03254,27.1353333 31.33284,27.3513333 31.6107,27.5886667 C32.04828,27.9613333 32.42778,28.3806667 32.75118,28.8006667 C33.0594,29.2033333 33.3168,29.6066667 33.52536,29.9726667 C33.99726,30.8006667 34.21968,31.4386667 34.21968,31.4386667 C33.95502,30.9033333 33.61776,30.4553333 33.25476,30.078 C32.84226,29.6506667 32.3961,29.3186667 31.98492,29.066 C31.16124,28.5606667 30.47484,28.3733333 30.47484,28.3733333 C29.93628,28.2186667 29.36934,28.13 28.78458,28.1126667 C28.72056,28.11 28.65588,28.1086667 28.59186,28.1086667 C28.3965,28.1086667 28.20378,28.118 28.01304,28.1333333 C26.83824,28.232 25.74792,28.6293333 24.816,29.2493333 C22.94952,30.4913333 21.71664,32.6266667 21.71664,35.054 C21.71664,35.386 21.74172,35.7126667 21.78528,36.0333333 C21.81828,36.2653333 21.86118,36.492 21.91596,36.714 C21.97206,36.946 22.03872,37.1733333 22.11792,37.3946667 C23.06964,40.078 25.60932,41.9986667 28.59252,41.9986667 L55.19844,41.9986667 C60.95958,41.9986667 65.62974,37.2813333 65.62974,31.462 C65.62908,26.5273333 62.2677,22.384 57.7302,21.2406667" id="Fill-2" sketch:type="MSShapeGroup"></path>
        </g>
    </g>
</svg>