<?xml version="1.0" encoding="UTF-8" standalone="no"?>
<svg width="18px" height="18px" viewBox="0 0 18 18" version="1.1" xmlns="http://www.w3.org/2000/svg" xmlns:xlink="http://www.w3.org/1999/xlink" xmlns:sketch="http://www.bohemiancoding.com/sketch/ns">
    <!-- Generator: Sketch 3.0.3 (7891) - http://www.bohemiancoding.com/sketch -->
    <title>Untitled</title>
    <desc>Created with Sketch.</desc>
    <defs></defs>
    <g id="Page-1" stroke="none" stroke-width="1" fill="none" fill-rule="evenodd" sketch:type="MSPage">
        <g id="Search-Icon" sketch:type="MSLayerGroup" fill="#999999">
            <path d="M12.694275,10.8 L17.6293144,15.633163 C18.07735,16.0720063 18.1262136,16.8451581 17.7378202,17.3513909 L17.561588,17.5811646 C17.1731946,18.0873973 16.4889252,18.142608 16.0408895,17.7037646 L11.1428571,12.9069351" id="Fill-1" sketch:type="MSShapeGroup"></path>
            <path d="M0,7.1997986 C0,3.22338462 3.06989011,0 6.85733467,0 C10.6443956,0 13.7142857,3.22338462 13.7142857,7.1997986 C13.7142857,11.1766154 10.6443956,14.4 6.85733467,14.4 C3.06989011,14.3997986 0,11.176414 0,7.1997986 L0,7.1997986 Z M6.85733971,12.6 C9.69757485,12.6 12,10.1824536 12,7.1997933 C12,4.21754641 9.69757485,1.8 6.85733971,1.8 C4.01671087,1.8 1.71428571,4.21754641 1.71428571,7.1997933 C1.71448257,10.1824536 4.01690772,12.6 6.85733971,12.6 L6.85733971,12.6 Z" id="Fill-2" sketch:type="MSShapeGroup"></path>
        </g>
    </g>
</svg>