<?xml version="1.0" encoding="UTF-8" standalone="no"?>
<svg width="62px" height="50px" viewBox="0 0 62 50" version="1.1" xmlns="http://www.w3.org/2000/svg" xmlns:xlink="http://www.w3.org/1999/xlink" xmlns:sketch="http://www.bohemiancoding.com/sketch/ns">
    <!-- Generator: Sketch 3.0.3 (7891) - http://www.bohemiancoding.com/sketch -->
    <title>Untitled</title>
    <desc>Created with Sketch.</desc>
    <defs></defs>
    <g id="Page-1" stroke="none" stroke-width="1" fill="none" fill-rule="evenodd" sketch:type="MSPage">
        <g id="Imported-Layers" sketch:type="MSLayerGroup" fill="#CCCCCC">
            <path d="M38.803913,22.9541096 C41.8924565,20.6438356 43.8980217,16.8273973 43.8980217,12.6308219 C43.8980217,5.62054795 38.3065652,-0.111643836 31.4090652,-0.111643836 C24.5115652,-0.111643836 18.9201087,5.54726027 18.9201087,12.5575342 C18.9201087,16.7541096 20.9256739,20.6561644 24.0142174,22.9664384 C16.9482391,25.8787671 11.9727391,33.2260274 11.9727391,41.4452055 C11.9727391,52.4041096 50.8460652,52.4041096 50.8460652,41.4452055 C50.8453913,33.2267123 45.8692174,25.8664384 38.803913,22.9541096" id="Fill-1" sketch:type="MSShapeGroup"></path>
            <path d="M53.1319783,23.2712329 C55.4030652,21.5732877 56.876913,18.8068493 56.876913,15.7212329 C56.876913,10.5671233 52.7660435,6.37328767 47.6948478,6.37328767 C46.5559348,6.37328767 45.4662174,6.58561644 44.4600652,6.96986301 C45.1798043,8.69726027 45.5787609,10.5952055 45.5787609,12.5869863 C45.5787609,16.2609589 44.1965652,19.7842466 41.7906957,22.4328767 C48.3876304,26.1815068 52.5268043,33.3164384 52.5268043,41.2712329 C52.5268043,41.5849315 52.5018696,41.9164384 52.4452609,42.2589041 C57.698413,41.5876712 61.9858478,39.7636986 61.9858478,36.7863014 C61.9858478,30.380137 58.3271739,25.4130137 53.1319783,23.2712329" id="Fill-2" sketch:type="MSShapeGroup"></path>
            <path d="M10.2906522,41.2712329 C10.2906522,33.4623288 14.2849348,26.4452055 20.6776739,22.6458904 C20.7753913,22.5547945 20.870413,22.460274 20.964087,22.3657534 C18.5973043,19.719863 17.2380217,16.2123288 17.2380217,12.5472603 C17.2380217,10.6568493 17.6026087,8.85205479 18.2583261,7.19657534 C17.1093043,6.66917808 15.8362826,6.37328767 14.4945217,6.37328767 C9.42332609,6.37328767 5.31245652,10.5438356 5.31245652,15.6979452 C5.31245652,18.7842466 6.78697826,21.5773973 9.0573913,23.2753425 C3.86286957,25.4171233 0.204195652,30.380137 0.204195652,36.7863014 C0.204195652,39.8835616 4.84408696,41.7328767 10.3843261,42.3342466 C10.3189565,41.9650685 10.2906522,41.6089041 10.2906522,41.2712329" id="Fill-3" sketch:type="MSShapeGroup"></path>
        </g>
    </g>
</svg>