<?xml version="1.0" encoding="UTF-8" standalone="no"?>
<svg width="17px" height="16px" viewBox="0 0 17 16" version="1.1" xmlns="http://www.w3.org/2000/svg" xmlns:xlink="http://www.w3.org/1999/xlink" xmlns:sketch="http://www.bohemiancoding.com/sketch/ns">
    <!-- Generator: Sketch 3.0.4 (8053) - http://www.bohemiancoding.com/sketch -->
    <title>Untitled 2</title>
    <desc>Created with Sketch.</desc>
    <defs></defs>
    <g id="Page-1" stroke="none" stroke-width="1" fill="none" fill-rule="evenodd" sketch:type="MSPage">
        <g id="Imported-Layers" sketch:type="MSLayerGroup" transform="translate(1.000000, 0.000000)" fill="#8B572A">
            <path d="M7.72189091,0.0989090909 C3.38501818,0.0989090909 -0.130618182,3.59650909 -0.130618182,7.91010909 C-0.130618182,12.2248727 3.38501818,15.7221818 7.72189091,15.7221818 C12.0584727,15.7221818 15.5746909,12.2248727 15.5746909,7.91010909 C15.5746909,3.59650909 12.0584727,0.0989090909 7.72189091,0.0989090909 L7.72189091,0.0989090909 Z M7.72189091,14.4829091 C4.07272727,14.4829091 1.11476364,11.5409455 1.11476364,7.91010909 C1.11476364,4.28072727 4.07272727,1.33818182 7.72189091,1.33818182 C11.3710545,1.33818182 14.3287273,4.28072727 14.3287273,7.91010909 C14.3287273,11.5409455 11.3710545,14.4829091 7.72189091,14.4829091 L7.72189091,14.4829091 Z" id="Fill-1" sketch:type="MSShapeGroup"></path>
            <path d="M12.6423273,8.1024 L12.6461091,8.09890909 L12.6461091,8.09832727 C12.7488,7.99214545 12.7493818,7.82487273 12.6455273,7.72276364 L8.79098182,3.888 C8.73890909,3.83621818 8.67083636,3.80974545 8.60247273,3.80974545 C8.53352727,3.80974545 8.46516364,3.83621818 8.4128,3.888 L8.40872727,3.89323636 C8.35810909,3.94327273 8.33018182,4.01018182 8.33018182,4.08116364 L8.33018182,5.14210909 C8.33018182,5.21250909 8.35810909,5.28 8.40872727,5.32945455 L11.0018909,7.91010909 L8.40872727,10.4907636 C8.35810909,10.5408 8.33018182,10.6085818 8.33018182,10.6789818 L8.33018182,11.7402182 C8.33018182,11.8097455 8.35810909,11.8784 8.40872727,11.9278545 L8.4128,11.9328 C8.46312727,11.9825455 8.53149091,12.0107636 8.60247273,12.0107636 C8.67345455,12.0107636 8.74094545,11.9825455 8.79098182,11.9328 L12.6423273,8.1024" id="Fill-2" sketch:type="MSShapeGroup"></path>
            <path d="M2.89454545,8.1024 L2.89134545,8.09890909 L2.89134545,8.09832727 C2.78836364,7.99214545 2.78836364,7.82487273 2.89134545,7.72276364 L6.74589091,3.888 C6.79854545,3.83621818 6.86690909,3.80974545 6.93498182,3.80974545 C7.00392727,3.80974545 7.07170909,3.83621818 7.12378182,3.888 L7.12901818,3.89323636 C7.17934545,3.94327273 7.20785455,4.01018182 7.20785455,4.08116364 L7.20785455,5.14210909 C7.20785455,5.21250909 7.17934545,5.28 7.12901818,5.32945455 L4.53498182,7.91010909 L7.12901818,10.4907636 C7.17934545,10.5408 7.20785455,10.6085818 7.20785455,10.6789818 L7.20785455,11.7402182 C7.20785455,11.8097455 7.17934545,11.8784 7.12901818,11.9278545 L7.12378182,11.9328 C7.07432727,11.9825455 7.00625455,12.0107636 6.93498182,12.0107636 C6.86429091,12.0107636 6.79650909,11.9825455 6.74589091,11.9328 L2.89454545,8.1024" id="Fill-3" sketch:type="MSShapeGroup"></path>
        </g>
    </g>
</svg>