<?xml version="1.0" encoding="UTF-8" standalone="no"?>
<svg width="16px" height="16px" viewBox="0 0 16 16" version="1.1" xmlns="http://www.w3.org/2000/svg" xmlns:xlink="http://www.w3.org/1999/xlink" xmlns:sketch="http://www.bohemiancoding.com/sketch/ns">
    <!-- Generator: Sketch 3.0.4 (8053) - http://www.bohemiancoding.com/sketch -->
    <title>Untitled 2</title>
    <desc>Created with Sketch.</desc>
    <defs></defs>
    <g id="Page-1" stroke="none" stroke-width="1" fill="none" fill-rule="evenodd" sketch:type="MSPage">
        <path d="M7.75614815,0 C3.47259259,0 0,3.60584615 0,8.056 C0,11.6129231 2.22162963,14.6316923 5.3042963,15.6978462 C5.69274074,15.7710769 5.83407407,15.5215385 5.83407407,15.3089231 C5.83407407,15.1178462 5.82814815,14.6110769 5.82340741,13.9387692 C3.66607407,14.4255385 3.21125926,12.8593846 3.21125926,12.8593846 C2.85807407,11.9292308 2.34962963,11.6821538 2.34962963,11.6821538 C1.64562963,11.1815385 2.40325926,11.1916923 2.40325926,11.1916923 C3.18222222,11.2489231 3.5917037,12.0215385 3.5917037,12.0215385 C4.28296296,13.2529231 5.40681481,12.896 5.84918519,12.6904615 C5.91881481,12.1695385 6.11911111,11.816 6.34074074,11.6141538 C4.61837037,11.4116923 2.8077037,10.7187692 2.8077037,7.63292308 C2.8077037,6.75476923 3.11051852,6.03476923 3.60562963,5.47230769 C3.52622222,5.268 3.26044444,4.44953846 3.68207407,3.34 C3.68207407,3.34 4.33274074,3.12369231 5.81511111,4.16646154 C6.43377778,3.98738462 7.09807407,3.89784615 7.75703704,3.89476923 C8.4157037,3.89784615 9.07940741,3.98738462 9.69807407,4.16646154 C11.1798519,3.12369231 11.8305185,3.34 11.8305185,3.34 C12.2527407,4.44953846 11.986963,5.268 11.9066667,5.47230769 C12.402963,6.03476923 12.7042963,6.75476923 12.7042963,7.63292308 C12.7042963,10.7276923 10.8900741,11.4086154 9.16237037,11.6083077 C9.4402963,11.8569231 9.68918519,12.3473846 9.68918519,13.0990769 C9.68918519,14.176 9.6797037,15.0446154 9.6797037,15.3089231 C9.6797037,15.524 9.81985185,15.7741538 10.213037,15.6953846 C13.2921481,14.6292308 15.5125926,11.6116923 15.5125926,8.056 C15.5125926,3.60584615 12.0408889,0 7.75614815,0" id="Imported-Layers" fill="#333333" sketch:type="MSShapeGroup"></path>
    </g>
</svg>