<?xml version="1.0" encoding="UTF-8" standalone="no"?>
<svg width="17px" height="16px" viewBox="0 0 17 16" version="1.1" xmlns="http://www.w3.org/2000/svg" xmlns:xlink="http://www.w3.org/1999/xlink" xmlns:sketch="http://www.bohemiancoding.com/sketch/ns">
    <!-- Generator: Sketch 3.0.4 (8053) - http://www.bohemiancoding.com/sketch -->
    <title>Untitled 2</title>
    <desc>Created with Sketch.</desc>
    <defs></defs>
    <g id="Page-1" stroke="none" stroke-width="1" fill="none" fill-rule="evenodd" sketch:type="MSPage">
        <path d="M0.965,5.049 L4.396,5.049 L4.396,15.365 L0.965,15.365 L0.965,5.049 Z M2.68,3.639 L2.657,3.639 C1.507,3.639 0.763,2.846 0.763,1.856 C0.763,0.844 1.53,0.072 2.702,0.072 C3.876,0.072 4.599,0.844 4.62,1.856 C4.62,2.846 3.876,3.639 2.68,3.639 L2.68,3.639 Z M16.763,15.365 L13.333,15.365 L13.333,9.846 C13.333,8.459 12.837,7.512 11.595,7.512 C10.648,7.512 10.083,8.152 9.835,8.768 C9.744,8.988 9.722,9.293 9.722,9.604 L9.722,15.365 L6.293,15.365 C6.293,15.365 6.337,6.016 6.293,5.049 L9.722,5.049 L9.722,6.51 C10.179,5.805 10.993,4.807 12.814,4.807 C15.069,4.807 16.763,6.279 16.763,9.449 L16.763,15.365 L16.763,15.365 Z" id="Fill-2" fill="#0181B2" sketch:type="MSShapeGroup"></path>
    </g>
</svg>