<?xml version="1.0" encoding="UTF-8" standalone="no"?>
<svg width="16px" height="20px" viewBox="0 0 16 20" version="1.1" xmlns="http://www.w3.org/2000/svg" xmlns:xlink="http://www.w3.org/1999/xlink" xmlns:sketch="http://www.bohemiancoding.com/sketch/ns">
    <!-- Generator: Sketch 3.0.4 (8053) - http://www.bohemiancoding.com/sketch -->
    <title>Untitled 2</title>
    <desc>Created with Sketch.</desc>
    <defs></defs>
    <g id="Page-1" stroke="none" stroke-width="1" fill="none" fill-rule="evenodd" sketch:type="MSPage">
        <path d="M5.94844444,6.52976744 L9.30666667,1.43953488 C9.94133333,0.480465116 10.7622222,0 11.7662222,0 C12.5857778,0 13.2951111,0.305116279 13.8951111,0.913023256 C14.4942222,1.52186047 14.7937778,2.25116279 14.7937778,3.1 C14.7937778,3.72604651 14.6351111,4.28046512 14.3182222,4.76 L11.2906667,9.36697674 L14.992,14.2795349 C15.3617778,14.7683721 15.548,15.3395349 15.548,15.9944186 C15.548,16.8623256 15.2568889,17.6060465 14.6751111,18.2293023 C14.0937778,18.8516279 13.388,19.1632558 12.5591111,19.1632558 C11.6524444,19.1632558 10.9604444,18.8544186 10.484,18.235814 L5.94844444,12.3144186 L5.94844444,15.5804651 C5.94844444,16.5116279 5.79511111,17.2353488 5.48577778,17.7516279 C4.92222222,18.6916279 4.10266667,19.1632558 3.02711111,19.1632558 C2.04933333,19.1632558 1.29066667,18.8172093 0.753333333,18.1246512 C0.250222222,17.4888372 0,16.6451163 0,15.5930233 L0,3.48697674 C0,2.49069767 0.253777778,1.67023256 0.766666667,1.02465116 C1.304,0.340930233 2.04444444,0 2.988,0 C3.88666667,0 4.636,0.340930233 5.23422222,1.02465116 C5.56933333,1.40186047 5.78177778,1.78511628 5.86977778,2.17302326 C5.92222222,2.41255814 5.94844444,2.85906977 5.94844444,3.5144186 L5.94844444,6.52976744" id="Imported-Layers" fill="#74B944" sketch:type="MSShapeGroup"></path>
    </g>
</svg>