<?xml version="1.0" encoding="UTF-8" standalone="no"?>
<svg width="16px" height="16px" viewBox="0 0 16 16" version="1.1" xmlns="http://www.w3.org/2000/svg" xmlns:xlink="http://www.w3.org/1999/xlink" xmlns:sketch="http://www.bohemiancoding.com/sketch/ns">
    <!-- Generator: Sketch 3.0.4 (8053) - http://www.bohemiancoding.com/sketch -->
    <title>Untitled 2</title>
    <desc>Created with Sketch.</desc>
    <defs></defs>
    <g id="Page-1" stroke="none" stroke-width="1" fill="none" fill-rule="evenodd" sketch:type="MSPage">
        <path d="M7.84914286,15.6982857 C3.52101587,15.6982857 0,12.1765079 0,7.84863492 C0,3.52101587 3.52101587,0 7.84914286,0 C12.1772698,0 15.6982857,3.52101587 15.6982857,7.84863492 C15.6982857,12.1765079 12.1772698,15.6982857 7.84914286,15.6982857 L7.84914286,15.6982857 Z M14.4688254,8.92342857 C14.239746,8.85053968 12.3936508,8.30044444 10.2928254,8.63695238 C11.1697778,11.0463492 11.5268571,13.0087619 11.5949206,13.4173968 C13.0989206,12.4 14.1696508,10.7890794 14.4688254,8.92342857 L14.4688254,8.92342857 Z M10.4680635,14.0304762 C10.368,13.4422857 9.97892063,11.3925079 9.03746032,8.94679365 L8.99326984,8.96177778 C5.21193651,10.2791111 3.85473016,12.9018413 3.73384127,13.1484444 C4.87009524,14.0350476 6.2991746,14.5638095 7.84914286,14.5638095 C8.77739683,14.5638095 9.66298413,14.3740952 10.4680635,14.0304762 L10.4680635,14.0304762 Z M2.86806349,12.3420952 C3.01993651,12.0822857 4.85993651,9.03568254 8.31771429,7.91796825 C8.4048254,7.88901587 8.49346032,7.86285714 8.58184127,7.83796825 C8.41346032,7.45701587 8.23009524,7.07555556 8.03834921,6.70019048 C4.69053968,7.70234921 1.44152381,7.66044444 1.14819048,7.65409524 C1.1464127,7.72266667 1.14438095,7.79022222 1.14438095,7.85930159 C1.14438095,9.58120635 1.79707937,11.1530159 2.86806349,12.3420952 L2.86806349,12.3420952 Z M1.28609524,6.48609524 C1.58603175,6.49015873 4.34819048,6.50209524 7.48419048,5.66933333 C6.3735873,3.69422222 5.17536508,2.03403175 4.99834921,1.792 C3.12304762,2.67631746 1.72088889,4.4055873 1.28609524,6.48609524 L1.28609524,6.48609524 Z M6.27784127,1.34120635 C6.4632381,1.5888254 7.68101587,3.24774603 8.7791746,5.26552381 C11.1636825,4.37257143 12.1729524,3.01587302 12.2935873,2.84393651 C11.1098413,1.79377778 9.5527619,1.15453968 7.84914286,1.15453968 C7.30819048,1.15453968 6.78196825,1.21904762 6.27784127,1.34120635 L6.27784127,1.34120635 Z M13.0389841,3.61955556 C12.8975238,3.81053968 11.7737143,5.25104762 9.2952381,6.26260317 C9.45066667,6.58260317 9.60025397,6.90692063 9.74019048,7.23403175 C9.78895238,7.3495873 9.83720635,7.46514286 9.88419048,7.58044444 C12.1150476,7.29930159 14.3316825,7.74933333 14.5528889,7.79580952 C14.5379048,6.21307937 13.9725714,4.76012698 13.0389841,3.61955556 L13.0389841,3.61955556 Z" id="Imported-Layers" fill="#E94C89" sketch:type="MSShapeGroup"></path>
    </g>
</svg>