<?xml version="1.0" encoding="UTF-8" standalone="no"?>
<svg width="16px" height="15px" viewBox="0 0 16 15" version="1.1" xmlns="http://www.w3.org/2000/svg" xmlns:xlink="http://www.w3.org/1999/xlink" xmlns:sketch="http://www.bohemiancoding.com/sketch/ns">
    <!-- Generator: Sketch 3.0.4 (8053) - http://www.bohemiancoding.com/sketch -->
    <title>Untitled 2</title>
    <desc>Created with Sketch.</desc>
    <defs></defs>
    <g id="Page-1" stroke="none" stroke-width="1" fill="none" fill-rule="evenodd" sketch:type="MSPage">
        <path d="M16,1.77473118 C15.407872,2.0811828 14.7786106,2.27956989 14.111714,2.37096774 C14.7911557,1.90215054 15.3130312,1.16397849 15.5599185,0.279569892 C14.9241336,0.711290323 14.2206053,1.01989247 13.4709111,1.2 C12.8742669,0.461290323 12.0181904,0 11.0763055,0 C9.26328995,0 7.79400972,1.69354839 7.79400972,3.78709677 C7.79400972,4.0811828 7.82261251,4.37204301 7.87680728,4.64569892 C5.15402227,4.49516129 2.73181747,2.98172043 1.11149443,0.69516129 C0.830484554,1.25322581 0.669405677,1.90215054 0.669405677,2.5983871 C0.669405677,3.90913978 1.24798495,5.07526882 2.13015525,5.74408602 C1.59121844,5.72096774 1.08489886,5.55967742 0.642810099,5.27365591 L0.642810099,5.32526882 C0.642810099,7.15645161 1.77437667,8.6844086 3.27577231,9.03817204 C3.00078407,9.12365591 2.70973812,9.16290323 2.40865611,9.16290323 C2.1973969,9.16290323 1.99717736,9.14731183 1.7949506,9.09569892 C2.21094559,10.6053763 3.4243061,11.7016129 4.8604673,11.7241935 C3.73642779,12.7451613 2.32184413,13.3446237 0.783315038,13.3446237 C0.517861063,13.3446237 0.255919711,13.327957 0,13.2919355 C1.45171711,14.3709677 3.17440803,15 5.03208405,15 C11.0692802,15 14.3726517,9.22849462 14.3726517,4.22526882 C14.3726517,4.0655914 14.3691391,3.90322581 14.361612,3.74139785 C15.0024149,3.2 15.5599185,2.53225806 16,1.77473118" id="Fill-4" fill="#5A9BD4" sketch:type="MSShapeGroup"></path>
    </g>
</svg>