<?xml version="1.0" encoding="UTF-8" standalone="no"?>
<svg width="22px" height="20px" viewBox="0 0 22 20" version="1.1" xmlns="http://www.w3.org/2000/svg" xmlns:xlink="http://www.w3.org/1999/xlink" xmlns:sketch="http://www.bohemiancoding.com/sketch/ns">
    <!-- Generator: Sketch 3.0.3 (7891) - http://www.bohemiancoding.com/sketch -->
    <title>Untitled</title>
    <desc>Created with Sketch.</desc>
    <defs></defs>
    <g id="Page-1" stroke="none" stroke-width="1" fill="none" fill-rule="evenodd" sketch:type="MSPage">
        <path d="M9,12.5892205 C9,12.9551202 9.22112286,13.1048837 9.4916262,12.9219339 L14.7971225,9.33228796 C15.0676258,9.14933812 15.0676258,8.84981095 14.7971225,8.66728658 L9.4916262,5.07806609 C9.22112286,4.89511625 9,5.04487984 9,5.41077951 L9,12.5892205" id="prev/next" fill="#095F8B" sketch:type="MSShapeGroup"></path>
        <path d="M20.2159248,16.6665051 L20.2159248,3.0299798 L20.5133764,3.0299798 C21.3331123,3.0299798 22,2.35054545 22,1.51466667 C22,0.678787879 21.3331123,0 20.5133764,0 L1.48662362,0 C0.666887685,0 0,0.679434343 0,1.51531313 C0,2.35119192 0.666570572,3.03062626 1.48662362,3.03062626 L1.78407518,3.03062626 L1.78407518,16.6665051 C1.78407518,16.8342626 1.91694534,16.969697 2.08152675,16.969697 L10.7031827,16.969697 L10.7031827,18.2374141 C10.3578471,18.3631515 10.1085966,18.6960808 10.1085966,19.0910707 C10.1085966,19.592404 10.5087927,20 11.0003171,20 C11.4918416,20 11.8920376,19.5920808 11.8920376,19.0910707 C11.8920376,18.6960808 11.6427871,18.3631515 11.2974516,18.2374141 L11.2974516,16.969697 L19.9191075,16.969697 C20.0830547,16.969697 20.2159248,16.8342626 20.2159248,16.6665051 L20.2159248,16.6665051 Z M1,1.49991111 C1,1.22417778 1.38461538,1 1.85700354,1 L20.1429965,1 C20.6156894,1 21,1.22435556 21,1.49991111 C21,1.77546667 20.6156894,2 20.1429965,2 L1.85700354,2 C1.38431062,2 1,1.77564444 1,1.49991111 L1,1.49991111 Z M3,3 L19,3 L19,16 L3,16 L3,3 Z" id="Imported-Layers" fill="#215387" sketch:type="MSShapeGroup"></path>
    </g>
</svg>