<?xml version="1.0" encoding="UTF-8" standalone="no"?>
<svg width="33px" height="33px" viewBox="0 0 33 33" version="1.1" xmlns="http://www.w3.org/2000/svg" xmlns:xlink="http://www.w3.org/1999/xlink" xmlns:sketch="http://www.bohemiancoding.com/sketch/ns">
    <!-- Generator: Sketch 3.0.3 (7891) - http://www.bohemiancoding.com/sketch -->
    <title>Untitled</title>
    <desc>Created with Sketch.</desc>
    <defs></defs>
    <g id="Page-1" stroke="none" stroke-width="1" fill="none" fill-rule="evenodd" sketch:type="MSPage">
        <path d="M16.5,0 C7.387875,0 0,7.387875 0,16.5 C0,25.6141875 7.387875,33 16.5,33 C25.612125,33 33,25.6141875 33,16.5 C33,7.387875 25.612125,0 16.5,0 L16.5,0 Z M23.362,13.2375019 C23.369,13.3784802 23.372,13.5184587 23.372,13.6614367 C23.372,17.9987694 20.07,23 14.032,23 C12.178,23 10.453,22.4570835 9,21.5252269 C9.258,21.5542224 9.519,21.57022 9.783,21.57022 C11.322,21.57022 12.736,21.0473004 13.859,20.1664359 C12.424,20.1384402 11.211,19.1895862 10.794,17.8867866 C10.994,17.9247808 11.199,17.9457776 11.411,17.9457776 C11.711,17.9457776 12.001,17.9047839 12.275,17.8307953 C10.775,17.5278419 9.643,16.2020458 9.643,14.6122904 L9.643,14.5712967 C10.086,14.8172589 10.592,14.9642363 11.13,14.9812337 C10.249,14.3933241 9.67,13.3874788 9.67,12.2496539 C9.67,11.6477465 9.832,11.0838333 10.114,10.5989079 C11.732,12.5856022 14.152,13.8914013 16.88,14.0283802 C16.824,13.7884172 16.795,13.5384556 16.795,13.2804953 C16.795,11.468774 18.265,10 20.078,10 C21.021,10 21.875,10.3979388 22.474,11.0348408 C23.221,10.8878634 23.924,10.6149054 24.559,10.2379634 C24.312,11.0058453 23.793,11.6477465 23.115,12.053684 C23.779,11.975696 24.412,11.7987233 25,11.5387633 C24.561,12.1966621 24.004,12.7745731 23.362,13.2375019 L23.362,13.2375019 Z" id="Imported-Layers-8" fill="#BBBBBB" sketch:type="MSShapeGroup"></path>
    </g>
</svg>