<?xml version="1.0" encoding="UTF-8" standalone="no"?>
<svg width="21px" height="12px" viewBox="0 0 21 12" version="1.1" xmlns="http://www.w3.org/2000/svg" xmlns:xlink="http://www.w3.org/1999/xlink" xmlns:sketch="http://www.bohemiancoding.com/sketch/ns">
    <!-- Generator: Sketch 3.0.3 (7891) - http://www.bohemiancoding.com/sketch -->
    <title>Untitled</title>
    <desc>Created with Sketch.</desc>
    <defs></defs>
    <g id="Page-1" stroke="none" stroke-width="1" fill="none" fill-rule="evenodd" sketch:type="MSPage">
        <path d="M10.125,0 C4.46625,0 0,5.7855 0,5.7855 C0,5.7855 4.4655,11.57175 10.125,11.57175 C14.45325,11.57175 20.25,5.78475 20.25,5.78475 C20.25,5.78475 14.45325,0 10.125,0 L10.125,0 Z M10.125,9.39075 C8.13825,9.39075 6.51975,7.77375 6.51975,5.784 C6.51975,3.798 8.13825,2.178 10.125,2.178 C12.111,2.178 13.73025,3.7965 13.73025,5.784 C13.73025,7.77225 12.111,9.39075 10.125,9.39075 L10.125,9.39075 Z M10.125,3.681 C8.96325,3.681 8.0205,4.623 8.0205,5.7855 C8.0205,6.948 8.9625,7.89075 10.125,7.89075 C11.2875,7.89075 12.23025,6.94725 12.23025,5.784 C12.23025,4.62375 11.2875,3.681 10.125,3.681 L10.125,3.681 Z" id="Imported-Layers" fill="#999999" sketch:type="MSShapeGroup"></path>
    </g>
</svg>