<?xml version="1.0" encoding="UTF-8" standalone="no"?>
<svg width="387px" height="807px" viewBox="0 0 387 807" version="1.1" xmlns="http://www.w3.org/2000/svg" xmlns:xlink="http://www.w3.org/1999/xlink" xmlns:sketch="http://www.bohemiancoding.com/sketch/ns">
    <!-- Generator: Sketch 3.0.3 (7891) - http://www.bohemiancoding.com/sketch -->
    <title>Untitled 2</title>
    <desc>Created with Sketch.</desc>
    <defs></defs>
    <g id="Page-1" stroke="none" stroke-width="1" fill="none" fill-rule="evenodd" sketch:type="MSPage">
        <g id="Imported-Layers" sketch:type="MSLayerGroup">
            <path d="M349.396,22.082 C342.487,19.06 334.455,17.529 325.523,17.529 L68.179,17.529 C59.247,17.529 51.215,19.06 44.306,22.082 C38.202,24.75 32.958,28.582 28.719,33.472 C21.494,41.804 17.351,53.124 17.351,64.529 L17.351,749.447 C17.351,760.852 21.494,772.172 28.719,780.506 C32.958,785.394 38.202,789.226 44.306,791.895 C51.215,794.916 59.247,796.447 68.179,796.447 L325.523,796.447 C334.455,796.447 342.487,794.916 349.396,791.895 C355.5,789.226 360.744,785.394 364.982,780.506 C372.207,772.172 376.351,760.852 376.351,749.447 L376.351,64.529 C376.351,53.124 372.207,41.804 364.982,33.472 C360.744,28.582 355.5,24.75 349.396,22.082 L349.396,22.082 Z" id="Fill-5" stroke="#5A9BD4" stroke-width="4" fill="#F9F9F9" sketch:type="MSShapeGroup"></path>
            <path d="M372.916,26.599 C365.178,17.674 350.674,7.035 325.523,7.035 L325.351,7.035 L325.351,4.882 C325.351,2.4 322.991,0.052 320.497,0.052 L263.33,0.052 C260.856,0.052 258.518,2.415 258.518,4.914 L258.518,7.035 L68.179,7.035 C43.028,7.035 28.524,17.674 20.786,26.599 C11.93,36.813 6.851,50.64 6.851,64.535 L6.851,115.507 L4.58,115.507 C2.374,115.507 0.58,117.302 0.58,119.508 L0.58,152.508 C0.58,154.713 2.374,156.508 4.58,156.508 L6.851,156.508 L6.851,173.539 L4.527,173.539 C2.325,173.539 0.08,175.762 0.08,177.945 L0.08,229.164 C0.08,231.372 2.216,233.539 4.393,233.539 L6.851,233.539 L6.851,247.279 L4.434,247.279 C2.196,247.279 0.08,249.364 0.08,251.57 L0.08,303.195 C0.08,305.584 2.533,307.507 4.564,307.507 L6.851,307.507 L6.851,749.453 C6.851,763.35 11.93,777.176 20.786,787.388 C28.524,796.314 43.028,806.953 68.179,806.953 L325.523,806.953 C350.674,806.953 365.178,796.314 372.916,787.388 C381.772,777.176 386.851,763.35 386.851,749.453 L386.851,64.535 C386.851,50.64 381.772,36.813 372.916,26.599 L372.916,26.599 Z" id="Fill-2" stroke="#5A9BD4" stroke-width="4" fill="#F9F9F9" sketch:type="MSShapeGroup"></path>
            <path d="M196.851,56.289 C201.537,56.289 205.351,52.476 205.351,47.789 C205.351,43.102 201.537,39.289 196.851,39.289 C192.164,39.289 188.351,43.102 188.351,47.789 C188.351,52.476 192.164,56.289 196.851,56.289 L196.851,56.289 Z M196.851,42.289 C199.883,42.289 202.351,44.757 202.351,47.789 C202.351,50.821 199.883,53.289 196.851,53.289 C193.818,53.289 191.351,50.821 191.351,47.789 C191.351,44.757 193.818,42.289 196.851,42.289 L196.851,42.289 Z" id="Fill-3" fill="#5A9BD4" sketch:type="MSShapeGroup"></path>
            <path d="M196.851,50.961 C198.508,50.961 199.851,49.617 199.851,47.961 C199.851,46.304 198.508,44.961 196.851,44.961 C195.194,44.961 193.851,46.304 193.851,47.961 C193.851,49.617 195.194,50.961 196.851,50.961" id="Fill-4" fill="#5A9BD4" sketch:type="MSShapeGroup"></path>
            <path d="M169.601,85.636 L224.101,85.636 C228.381,85.636 231.851,82.166 231.851,77.887 C231.851,73.605 228.381,70.137 224.101,70.137 L169.601,70.137 C165.32,70.137 161.851,73.605 161.851,77.887 C161.851,82.166 165.32,85.636 169.601,85.636 L169.601,85.636 Z" id="Fill-11" stroke="#5A9BD4" stroke-width="4" fill="#F9F9F9" sketch:type="MSShapeGroup"></path>
            <path d="M196.851,712.601 C177.521,712.601 161.851,728.271 161.851,747.601 C161.851,766.931 177.521,782.602 196.851,782.602 C216.181,782.602 231.851,766.931 231.851,747.601 C231.851,728.271 216.181,712.601 196.851,712.601 L196.851,712.601 Z" id="Fill-6" stroke="#5A9BD4" stroke-width="4" fill="#F9F9F9" sketch:type="MSShapeGroup"></path>
            <path d="M203.851,733.527 L189.851,733.527 C186.261,733.527 183.351,736.437 183.351,740.027 L183.351,754.027 C183.351,757.617 186.261,760.527 189.851,760.527 L203.851,760.527 C207.44,760.527 210.351,757.617 210.351,754.027 L210.351,740.027 C210.351,736.437 207.44,733.527 203.851,733.527 L203.851,733.527 Z" id="Fill-7" stroke="#5A9BD4" stroke-width="4" fill="#F9F9F9" sketch:type="MSShapeGroup"></path>
            <path d="M356.851,119.236 L36.85,119.236 C34.642,119.236 32.851,121.026 32.851,123.236 L32.851,691.236 C32.851,693.446 34.642,695.235 36.85,695.235 L356.851,695.235 C359.059,695.235 360.851,693.446 360.851,691.236 L360.851,123.236 C360.851,121.026 359.059,119.236 356.851,119.236 L356.851,119.236 Z M36.85,123.236 L356.851,123.236 L356.851,691.236 L36.85,691.236 L36.85,123.236 Z" id="Fill-8" fill="#5A9BD4" sketch:type="MSShapeGroup"></path>
            <path d="M36.871,123.273 L356.851,123.273 L356.851,691.236 L36.871,691.236 L36.871,123.273 Z" id="Fill-9" fill="#FFFFFF" sketch:type="MSShapeGroup"></path>
            <path d="M356.871,123.273 L356.851,123.273 L356.851,691.236 L36.871,691.236 L36.871,691.274 L356.871,691.274 L356.871,123.273" id="Fill-10" fill="#5A9BD4" sketch:type="MSShapeGroup"></path>
        </g>
    </g>
</svg>