<?xml version="1.0" encoding="UTF-8" standalone="no"?>
<svg width="1970px" height="1132px" viewBox="0 0 1970 1132" version="1.1" xmlns="http://www.w3.org/2000/svg" xmlns:xlink="http://www.w3.org/1999/xlink" xmlns:sketch="http://www.bohemiancoding.com/sketch/ns">
    <!-- Generator: Sketch 3.0.3 (7891) - http://www.bohemiancoding.com/sketch -->
    <title>Untitled 2</title>
    <desc>Created with Sketch.</desc>
    <defs></defs>
    <g id="Page-1" stroke="none" stroke-width="1" fill="none" fill-rule="evenodd" sketch:type="MSPage">
        <g id="Imported-Layers" sketch:type="MSLayerGroup" fill="#5A9BD4">
            <path d="M995.219,51.907 C995.219,46.407 990.76,41.949 985.26,41.949 C979.76,41.949 975.302,46.407 975.302,51.907 C975.302,57.407 979.76,61.865 985.26,61.865 C990.76,61.865 995.219,57.407 995.219,51.907 L995.219,51.907 Z M979.302,51.907 C979.302,48.622 981.975,45.949 985.26,45.949 C988.545,45.949 991.219,48.622 991.219,51.907 C991.219,55.192 988.545,57.865 985.26,57.865 C981.975,57.865 979.302,55.192 979.302,51.907 L979.302,51.907 Z" id="Fill-1" sketch:type="MSShapeGroup"></path>
            <path d="M261.508,83.365 L261.508,983.365 C261.508,986.127 263.746,988.365 266.508,988.365 L1706.508,988.365 C1709.27,988.365 1711.508,986.127 1711.508,983.365 L1711.508,83.365 C1711.508,80.604 1709.27,78.365 1706.508,78.365 L266.508,78.365 C263.746,78.365 261.508,80.604 261.508,83.365 L261.508,83.365 Z M266.508,83.365 L1706.508,83.365 L1706.508,983.365 L266.508,983.365 L266.508,83.365 Z" id="Fill-2" sketch:type="MSShapeGroup"></path>
            <path d="M667.811,1106.191 C665.731,1104.763 660.121,1104.256 655.95,1104.256 C655.448,1104.256 654.943,1104.263 654.443,1104.277 C646.196,1104.517 645.659,1106.34 645.401,1107.216 C645.16,1108.035 645.334,1109.207 646.546,1110.039 C648.626,1111.468 654.235,1111.975 658.406,1111.975 C658.908,1111.975 659.413,1111.968 659.915,1111.953 C668.161,1111.714 668.697,1109.891 668.955,1109.015 C669.196,1108.194 669.022,1107.023 667.811,1106.191" id="Fill-3" sketch:type="MSShapeGroup"></path>
            <path d="M1306.418,1104.277 C1305.916,1104.263 1305.412,1104.256 1304.91,1104.256 C1300.738,1104.256 1295.127,1104.763 1293.053,1106.19 C1291.838,1107.023 1291.664,1108.194 1291.904,1109.015 C1292.162,1109.891 1292.699,1111.714 1300.945,1111.953 C1301.447,1111.968 1301.951,1111.975 1302.453,1111.975 L1302.455,1111.975 C1306.625,1111.975 1312.232,1111.468 1314.316,1110.038 C1315.527,1109.206 1315.699,1108.034 1315.459,1107.216 C1315.201,1106.34 1314.662,1104.517 1306.418,1104.277" id="Fill-4" sketch:type="MSShapeGroup"></path>
            <path d="M186.903,1080.66 C185.315,1075.37 184.451,1069.767 184.451,1063.959 L184.451,61.959 C184.451,29.926 210.419,3.959 242.451,3.959 L1728.451,3.959 C1760.482,3.959 1786.451,29.926 1786.451,61.959 L1786.451,1063.959 C1786.451,1069.767 1785.588,1075.37 1783.998,1080.66 L1788.147,1080.66 C1789.637,1075.343 1790.451,1069.746 1790.451,1063.959 L1790.451,61.959 C1790.451,27.773 1762.639,-0.041 1728.451,-0.041 L242.451,-0.041 C208.264,-0.041 180.451,27.773 180.451,61.959 L180.451,1063.959 C180.451,1069.746 181.266,1075.343 182.755,1080.66 L186.903,1080.66" id="Fill-5" sketch:type="MSShapeGroup"></path>
            <path d="M1775.572,1080.66 L1778.74,1080.66 C1780.488,1075.405 1781.451,1069.794 1781.451,1063.959 L1781.451,61.959 C1781.451,32.734 1757.676,8.959 1728.451,8.959 L242.451,8.959 C213.227,8.959 189.451,32.734 189.451,61.959 L189.451,1063.959 C189.451,1069.794 190.413,1075.405 192.162,1080.66 L195.33,1080.66 C193.472,1075.434 192.451,1069.815 192.451,1063.959 L192.451,61.959 C192.451,34.389 214.881,11.959 242.451,11.959 L1728.451,11.959 C1756.021,11.959 1778.451,34.389 1778.451,61.959 L1778.451,1063.959 C1778.451,1069.815 1777.43,1075.434 1775.572,1080.66" id="Fill-6" sketch:type="MSShapeGroup"></path>
            <path d="M1769.451,1065.162 C1769.451,1075.779 1762.959,1080.615 1756.928,1080.615 L1756.58,1080.615 L1756.58,1080.66 L1767.221,1080.66 C1770.842,1077.488 1773.451,1072.379 1773.451,1065.162 L1773.451,61.959 C1773.451,37.146 1753.264,16.959 1728.451,16.959 L242.451,16.959 C217.638,16.959 197.451,37.146 197.451,61.959 L197.451,1065.162 C197.451,1072.379 200.145,1077.488 203.755,1080.66 L213.831,1080.66 L213.831,1080.615 L213.72,1080.615 C208.977,1080.615 201.451,1076.42 201.451,1065.162 L201.451,61.959 C201.451,39.352 219.844,20.959 242.451,20.959 L1728.451,20.959 C1751.059,20.959 1769.451,39.352 1769.451,61.959 L1769.451,1065.162" id="Fill-7" sketch:type="MSShapeGroup"></path>
            <path d="M1970.303,1089.24 L1970.303,1084.74 C1970.303,1082.531 1968.512,1080.74 1966.303,1080.74 L1142.443,1080.74 C1141.498,1080.74 1140.631,1081.067 1139.946,1081.615 L818.814,1081.615 C818.129,1081.067 817.262,1080.74 816.316,1080.74 L4.178,1080.74 C1.969,1080.74 0.178,1082.531 0.178,1084.74 L0.178,1088.282 C0.178,1089.913 0.855,1091.449 2.19,1092.846 L2.19,1092.847 C3.616,1094.34 7.955,1098.882 38.525,1105.748 C57.568,1110.025 82.695,1114.313 111.19,1118.146 C175.992,1126.864 246.971,1131.865 305.928,1131.865 L1621.053,1131.865 C1742.527,1131.865 1826.473,1123.241 1875.502,1116.008 C1923.916,1108.863 1962.094,1099.409 1968.611,1092.964 C1968.633,1092.943 1968.65,1092.918 1968.672,1092.897 C1968.686,1092.882 1968.703,1092.872 1968.717,1092.857 C1968.793,1092.778 1968.846,1092.693 1968.918,1092.613 C1968.945,1092.576 1968.979,1092.543 1969.006,1092.505 C1969.852,1091.503 1970.303,1090.41 1970.303,1089.24 L1970.303,1089.24 Z M1966.303,1089.24 C1966.303,1089.487 1966.135,1089.773 1965.834,1090.084 L1146.443,1090.084 L1146.443,1084.74 L1966.303,1084.74 L1966.303,1089.24 L1966.303,1089.24 Z M1142.443,1085.615 L1142.443,1090.084 C1140.496,1092.039 1137.356,1093.678 1131.493,1093.678 L1022.428,1093.678 L936.333,1093.678 L829.865,1093.678 C824.002,1093.678 818.266,1092.039 816.316,1090.085 L816.316,1090.084 L816.316,1085.615 L1142.443,1085.615 L1142.443,1085.615 Z M4.178,1084.74 L812.316,1084.74 L812.316,1090.084 L5.083,1090.084 C4.489,1089.463 4.178,1088.86 4.178,1088.282 L4.178,1084.74 L4.178,1084.74 Z M1621.053,1127.865 L305.928,1127.865 C187.742,1127.865 46.804,1108.121 12.171,1094.098 L12.055,1094.084 L814.943,1094.084 C818.653,1096.543 824.986,1097.678 829.865,1097.678 L1131.493,1097.678 C1136.772,1097.678 1140.865,1096.497 1143.945,1094.084 L1957.924,1094.084 C1928.102,1105.247 1817.945,1127.865 1621.053,1127.865 L1621.053,1127.865 Z" id="Fill-8" sketch:type="MSShapeGroup"></path>
        </g>
    </g>
</svg>