<?xml version="1.0" encoding="UTF-8" standalone="no"?>
<svg width="130px" height="115px" viewBox="0 0 130 115" version="1.1" xmlns="http://www.w3.org/2000/svg" xmlns:xlink="http://www.w3.org/1999/xlink" xmlns:sketch="http://www.bohemiancoding.com/sketch/ns">
    <!-- Generator: Sketch 3.0.3 (7891) - http://www.bohemiancoding.com/sketch -->
    <title>Untitled</title>
    <desc>Created with Sketch.</desc>
    <defs></defs>
    <g id="Page-1" stroke="none" stroke-width="1" fill="none" fill-rule="evenodd" sketch:type="MSPage">
        <g id="factory-ico" sketch:type="MSLayerGroup" transform="translate(1.000000, 1.000000)">
            <path d="M34.4858701,-0.13034984 C15.2509091,-0.13034984 -0.343012987,15.6495155 -0.343012987,35.1160962 C-0.343012987,54.5804165 15.2509091,70.3602818 34.4858701,70.3602818 C53.7230649,70.3602818 69.3192208,54.5804165 69.3192208,35.1160962 C69.3192208,15.6495155 53.7252987,-0.13034984 34.4858701,-0.13034984 L34.4858701,-0.13034984 Z M34.4858701,51.3593439 C25.6222857,51.3593439 18.4362597,44.0876311 18.4362597,35.1160962 C18.4362597,26.1445613 25.6245195,18.8728485 34.4858701,18.8728485 C43.3539221,18.8728485 50.5399481,26.1445613 50.5399481,35.1160962 C50.5399481,44.0853707 43.3539221,51.3593439 34.4858701,51.3593439 L34.4858701,51.3593439 Z" id="Fill-1" fill="#5EA1CF" sketch:type="MSShapeGroup"></path>
            <path d="M34.4881039,26.2281961 C39.3376104,26.2281961 43.269039,30.2065034 43.269039,35.1138358 C43.269039,40.0211682 39.3376104,43.9994755 34.4881039,43.9994755 C29.6385974,43.9994755 25.7071688,40.0211682 25.7071688,35.1138358 C25.7071688,30.2065034 29.6385974,26.2281961 34.4881039,26.2281961" id="Fill-2" fill="#5EA1CF" sketch:type="MSShapeGroup"></path>
            <path d="M101.402805,38.2897004 C86.5728312,38.2897004 74.5529351,50.4529227 74.5529351,65.4597306 C74.5529351,80.4665385 86.5750649,92.6297608 101.402805,92.6297608 C116.230545,92.6297608 128.250442,80.4665385 128.250442,65.4597306 C128.250442,50.4529227 116.230545,38.2897004 101.402805,38.2897004 L101.402805,38.2897004 Z M101.402805,77.9800965 C94.5674805,77.9800965 89.0255065,72.3742999 89.0255065,65.4574702 C89.0255065,58.5406406 94.5674805,52.934844 101.402805,52.934844 C108.235896,52.934844 113.775636,58.5406406 113.775636,65.4574702 C113.775636,72.3742999 108.235896,77.9800965 101.402805,77.9800965 L101.402805,77.9800965 Z" id="Fill-3" fill="#346A9A" sketch:type="MSShapeGroup"></path>
            <path d="M101.400571,58.6084526 C105.139896,58.6084526 108.171117,61.6758179 108.171117,65.4597306 C108.171117,69.2436433 105.139896,72.3110086 101.400571,72.3110086 C97.6612468,72.3110086 94.630026,69.2436433 94.630026,65.4597306 C94.630026,61.6758179 97.6612468,58.6084526 101.400571,58.6084526" id="Fill-4" fill="#346A9A" sketch:type="MSShapeGroup"></path>
            <path d="M57.7326753,75.4755712 C47.397039,75.4755712 39.0204156,83.9520781 39.0204156,94.4086971 C39.0204156,104.867576 47.397039,113.344083 57.7326753,113.344083 C68.0660779,113.344083 76.4427013,104.867576 76.4427013,94.4086971 C76.4427013,83.9520781 68.0660779,75.4755712 57.7326753,75.4755712 L57.7326753,75.4755712 Z M57.7326753,103.138369 C52.9702857,103.138369 49.1081039,99.2301342 49.1081039,94.4109575 C49.1081039,89.5917808 52.9702857,85.683546 57.7326753,85.683546 C62.4950649,85.683546 66.355013,89.5917808 66.355013,94.4109575 C66.355013,99.2301342 62.4950649,103.138369 57.7326753,103.138369 L57.7326753,103.138369 Z" id="Fill-5" fill="#3E78A7" sketch:type="MSShapeGroup"></path>
            <path d="M57.7304416,89.632468 C60.3372468,89.632468 62.4503896,91.7708081 62.4503896,94.4086971 C62.4503896,97.0465861 60.3372468,99.1849262 57.7304416,99.1849262 C55.1236364,99.1849262 53.0104935,97.0465861 53.0104935,94.4086971 C53.0104935,91.7708081 55.1236364,89.632468 57.7304416,89.632468" id="Fill-6" fill="#346A9A" sketch:type="MSShapeGroup"></path>
        </g>
    </g>
</svg>